<svg width="20" height="18" viewBox="0 0 20 18" fill="none" xmlns="http://www.w3.org/2000/svg">
<g clip-path="url(#clip0_12117_1253)">
<path d="M14.8625 1.26465C15.6194 0.608934 16.8072 0.649669 17.5139 1.35645L18.5403 2.38379C19.2463 3.09013 19.2902 4.27613 18.6379 5.03223L17.1106 6.80273C17.0838 6.83373 17.0519 6.86065 17.0168 6.88184L14.0793 8.6543L13.7151 9.74902C13.6941 9.81182 13.6575 9.86839 13.6086 9.91309C13.5596 9.95789 13.4995 9.98962 13.4348 10.0049C13.3702 10.0201 13.3024 10.0181 13.2385 10C13.1748 9.98184 13.1165 9.94818 13.0696 9.90137L9.99536 6.82715C9.94856 6.78026 9.91487 6.72192 9.89673 6.6582C9.87859 6.59432 9.8766 6.52655 9.89185 6.46191C9.90711 6.39725 9.93883 6.33713 9.98364 6.28809C10.0284 6.23912 10.0857 6.20264 10.1487 6.18164L11.2405 5.81641L12.9788 2.92285C12.9999 2.88767 13.0268 2.856 13.0579 2.8291L14.8625 1.26465ZM16.9622 1.9082C16.5403 1.48632 15.8253 1.46189 15.3723 1.85449L13.6155 3.37598L11.8352 6.34277C11.7993 6.40235 11.748 6.45044 11.6877 6.4834L11.6243 6.51172L10.9924 6.72168L11.5676 7.2959L11.5725 7.2998L11.5715 7.30078L12.5959 8.3252L13.175 8.90332L13.385 8.27246C13.4143 8.18452 13.4746 8.11042 13.554 8.0625L16.5598 6.24609L18.0481 4.52344C18.438 4.07149 18.4109 3.35694 17.9885 2.93457L16.9622 1.9082Z" fill="#1A2A57" stroke="#1A2A57" stroke-width="0.2"/>
<path d="M10.334 1.43213C10.4103 1.43384 10.4841 1.45804 10.5469 1.50146C10.6095 1.54486 10.6581 1.60556 10.6865 1.67627C10.715 1.74714 10.7223 1.82509 10.707 1.8999C10.6917 1.97469 10.6546 2.04319 10.6006 2.09717C10.5937 2.10406 10.2954 2.40469 9.94824 2.79639C9.59814 3.19143 9.20614 3.67131 9.01074 4.03662C8.82627 4.38172 8.73357 4.84064 8.68848 5.22217C8.66612 5.41134 8.65625 5.57883 8.65137 5.69971C8.64893 5.76014 8.64788 5.80949 8.64746 5.84326V5.896C8.64817 5.94809 8.63775 6.00007 8.61816 6.04834C8.59859 6.09648 8.56991 6.14046 8.5332 6.17725L8.39844 6.31104L17.1416 15.0542C17.6316 15.5447 17.6304 16.3427 17.1396 16.8335C16.8939 17.0791 16.5712 17.2016 16.249 17.2017C15.9274 17.2017 15.6054 17.0795 15.3604 16.8345L9.99902 11.4731L7.15137 14.3198L6.13867 16.1333C6.10051 16.2015 6.04252 16.2565 5.97266 16.2915L4.33301 17.1108C4.2599 17.1474 4.17738 17.16 4.09668 17.147C4.01592 17.1339 3.94065 17.0964 3.88281 17.0386L2.8584 16.0132C2.80069 15.9554 2.76211 15.8809 2.74902 15.8003C2.73598 15.7197 2.74876 15.637 2.78516 15.564L3.60547 13.9243C3.64044 13.8544 3.69545 13.7965 3.76367 13.7583L5.57422 12.7456L8.42285 9.89697L6.61719 8.09229L5.86914 8.84131C5.79614 8.91426 5.69694 8.95544 5.59375 8.95557C5.49038 8.95557 5.3905 8.91438 5.31738 8.84131L5.18262 8.70654L4.2998 9.58936L4.43457 9.72412C4.50766 9.79722 4.54882 9.89712 4.54883 10.0005C4.54871 10.1037 4.50754 10.2029 4.43457 10.2759L3.41016 11.3003C3.37397 11.3366 3.33053 11.3657 3.2832 11.3853C3.23595 11.4048 3.18493 11.4136 3.13379 11.4136C3.08289 11.4136 3.0324 11.4047 2.98535 11.3853C2.96185 11.3755 2.93903 11.3632 2.91797 11.3491L2.8584 11.3003L1.01465 9.45557C0.978458 9.41939 0.949283 9.37686 0.929688 9.32959C0.910092 9.28229 0.900391 9.23137 0.900391 9.18018C0.900411 9.12903 0.910112 9.07801 0.929688 9.03076C0.94928 8.9836 0.978526 8.94089 1.01465 8.90479L2.03906 7.88037C2.11218 7.8073 2.21109 7.76611 2.31445 7.76611C2.41781 7.76612 2.51674 7.80731 2.58984 7.88037L2.72363 8.01416L3.60645 7.13037L3.47363 6.99658C3.40055 6.92348 3.35938 6.82456 3.35938 6.72119C3.35939 6.61785 3.40058 6.5189 3.47363 6.4458L6.1377 3.78174C6.16906 3.75037 6.53971 3.38072 7.00977 2.96533C7.47759 2.55193 8.05405 2.08427 8.49316 1.86475C9.38909 1.41679 10.2918 1.43125 10.334 1.43213ZM7.16895 7.54053L15.9111 16.2837C16.0971 16.4697 16.4018 16.4689 16.5889 16.2817C16.7757 16.0946 16.7757 15.7909 16.5898 15.605L7.84668 6.86279L7.16895 7.54053ZM6.08887 13.3345C6.0635 13.3598 6.03424 13.3814 6.00293 13.3989L4.24902 14.3794L3.6084 15.6606L4.23535 16.2876L5.5166 15.647L6.49707 13.8931C6.51456 13.8618 6.53719 13.8334 6.5625 13.8081L9.44727 10.9214L8.97363 10.4487L6.08887 13.3345ZM9.26953 2.38818C9.12947 2.4336 8.98488 2.49049 8.8418 2.56201C8.47109 2.74734 7.93914 3.18191 7.49121 3.58057C7.04829 3.97477 6.69774 4.32327 6.68848 4.33252L4.2998 6.72021L4.43457 6.85498C4.50766 6.92808 4.54882 7.02797 4.54883 7.13135C4.54875 7.23459 4.50756 7.3337 4.43457 7.40674L3 8.84131C2.92697 8.91429 2.82785 8.95548 2.72461 8.95557C2.62124 8.95557 2.52136 8.91438 2.44824 8.84131L2.31348 8.70654L1.84082 9.18018L3.13379 10.4731L3.60742 9.99951L3.47363 9.86572C3.40057 9.79264 3.35941 9.69367 3.35938 9.59033C3.35937 9.48696 3.40056 9.38806 3.47363 9.31494L4.9082 7.88037C4.98131 7.80734 5.08025 7.76611 5.18359 7.76611C5.2869 7.76616 5.38591 7.80734 5.45898 7.88037L5.59277 8.01416L7.87012 5.73584C7.881 5.35053 7.94509 4.37553 8.32324 3.66846C8.5364 3.26999 8.92045 2.78957 9.26953 2.38818Z" fill="#1A2A57" stroke="#1A2A57" stroke-width="0.2"/>
</g>
<defs>
<clipPath id="clip0_12117_1253">
<rect width="20" height="18" fill="white"/>
</clipPath>
</defs>
</svg>
