<svg width="11" height="11" viewBox="0 0 11 11" fill="none" xmlns="http://www.w3.org/2000/svg">
<path d="M10.1051 1.31969C10.1051 0.969677 9.96607 0.633993 9.71857 0.386493C9.47107 0.138994 9.13538 -4.81646e-05 8.78537 -4.81646e-05C8.43535 -4.85018e-05 8.09967 0.138996 7.85217 0.386496L5.05257 3.18609L2.25297 0.386496C2.00547 0.138996 1.66979 -4.91762e-05 1.31978 -4.93869e-05C0.96976 -4.92499e-05 0.634077 0.138995 0.386577 0.386495C0.139077 0.633994 3.73727e-05 0.969673 3.75729e-05 1.31969C3.74465e-05 1.66971 0.139079 2.00539 0.386579 2.25289L3.18618 5.05249L0.386579 7.85208C0.139079 8.09958 3.43276e-05 8.43527 3.44541e-05 8.78528C3.42644e-05 9.1353 0.139076 9.47098 0.386576 9.71848C0.634075 9.96598 0.96976 10.105 1.31978 10.105C1.66979 10.105 2.00548 9.96598 2.25298 9.71848L5.05257 6.91889L7.85217 9.71848C8.09967 9.96598 8.43535 10.105 8.78537 10.105C9.13539 10.105 9.47107 9.96598 9.71857 9.71848C9.96607 9.47098 10.1051 9.1353 10.1051 8.78528C10.1051 8.43527 9.96607 8.09959 9.71857 7.85209L6.91897 5.05249L9.71857 2.25289C9.96607 2.00539 10.1051 1.66971 10.1051 1.31969Z" fill="white"/>
</svg>
