<svg width="24" height="24" viewBox="0 0 24 24" fill="none" xmlns="http://www.w3.org/2000/svg">
<path d="M24 12C24 18.6275 18.6275 24 12 24C5.37248 24 0 18.6275 0 12C0 5.37248 5.37248 0 12 0C18.6275 0 24 5.37248 24 12Z" fill="#08C230"/>
<path d="M11.1347 20.1088C12.1249 19.1704 12.564 17.874 12.564 17.874L10.968 16.519C10.968 16.519 9.00694 12.7517 9.01903 12.7611C4.64063 7.66957 7.94606 0.766289 7.98337 0.688477C3.33183 2.34077 0 6.78143 0 11.9998C0 18.1761 4.66716 23.2628 10.6666 23.9266C9.88495 22.7426 10.0632 21.1245 11.1347 20.1088Z" fill="#05AF60"/>
<path d="M11.2665 18.4502C10.8805 18.4504 10.5053 18.3224 10.1999 18.0862L4.54303 13.7226C3.77874 13.1332 3.63703 12.0356 4.22663 11.2713C4.81603 10.5073 5.91357 10.3655 6.67786 10.9549L11.0544 14.3312L17.0929 7.64823C17.74 6.93212 18.8451 6.87606 19.5613 7.52336C20.2775 8.17023 20.3335 9.2755 19.6862 9.99161L12.5639 17.8741C12.2204 18.2543 11.7451 18.4502 11.2664 18.4502L11.2665 18.4502Z" fill="#FFFCDC"/>
</svg>
