<svg width="20" height="20" viewBox="0 0 20 20" fill="none" xmlns="http://www.w3.org/2000/svg">
<g clip-path="url(#clip0_11494_3775)">
<path d="M19.0634 7.18596L14.8678 10.3067L10.5085 2.67868C10.3964 2.48221 10.1988 2.38379 10.0004 2.38379C9.80233 2.38379 9.60392 2.48221 9.49143 2.67868L5.13218 10.3067L0.936575 7.18596C0.49483 6.85748 -0.116036 7.26798 0.0191046 7.80073L1.62048 14.1008L2.68051 14.7386L1.9181 15.2725L2.40164 17.1746C2.43383 17.3008 2.50712 17.4127 2.60996 17.4926C2.71279 17.5725 2.8393 17.616 2.96954 17.616C8.46064 17.616 11.5393 17.616 17.0304 17.616C17.2983 17.616 17.5323 17.434 17.5983 17.1746L18.0818 15.2725L17.6163 14.6866L18.3795 14.1008L19.9808 7.80073C20.1164 7.26681 19.5043 6.85826 19.0634 7.18596Z" fill="#FFEA80"/>
<path d="M2.70072 9.52818L3.56679 5.19783C3.66588 4.7023 4.30667 4.55677 4.60999 4.96122L7.17516 8.38144C7.58234 8.92434 7.07873 9.05097 5.39115 11.1324C3.15555 10.0359 2.55621 10.251 2.70072 9.52818Z" fill="#FFC34D"/>
<path d="M14.6478 11.1324C12.9508 9.09572 12.407 8.93844 12.8248 8.38143L15.3899 4.96121C15.6932 4.55688 16.334 4.70214 16.4331 5.19782L17.2992 9.52817C17.4499 10.2817 16.7256 10.0912 14.6478 11.1324Z" fill="#FF9933"/>
<path d="M19.9808 7.80073L18.3795 14.1008L17.6163 14.6866L18.0818 15.2725L17.5983 17.1746C17.5661 17.3008 17.4928 17.4127 17.39 17.4926C17.2872 17.5726 17.1606 17.616 17.0304 17.616H10.0004V2.38379C10.1988 2.38379 10.3964 2.48221 10.5085 2.67868L14.8678 10.3067L19.0634 7.18596C19.5043 6.85826 20.1164 7.26681 19.9808 7.80073Z" fill="#FFC34D"/>
<path d="M12.2599 11.4559L10.5023 8.52653C10.3882 8.33671 10.1945 8.24219 10.0004 8.24219C9.80588 8.24219 9.61098 8.33749 9.49771 8.52653L7.7401 11.4559C7.68547 11.547 7.65662 11.6512 7.65662 11.7574C7.65662 11.8636 7.68547 11.9678 7.7401 12.0589L9.49771 14.9883C9.61176 15.1781 9.80627 15.2726 10.0004 15.2726C10.1945 15.2722 10.389 15.1769 10.5023 14.9883L12.2599 12.0589C12.3145 11.9678 12.3434 11.8636 12.3434 11.7574C12.3434 11.6512 12.3145 11.547 12.2599 11.4559Z" fill="#FF6A4D"/>
<path d="M12.2599 12.0589L10.5023 14.9883C10.389 15.1769 10.1945 15.2722 10.0004 15.2726V8.24219C10.1945 8.24219 10.3882 8.33671 10.5023 8.52653L12.2599 11.4559C12.3145 11.547 12.3434 11.6512 12.3434 11.7574C12.3434 11.8636 12.3145 11.9678 12.2599 12.0589Z" fill="#F03800"/>
<path d="M5.89889 14.6865C5.89889 15.0099 5.63642 15.2723 5.31302 15.2723H1.9181L1.62048 14.1006H5.31302C5.63642 14.1006 5.89889 14.3631 5.89889 14.6865Z" fill="#FFC34D"/>
<path d="M18.3795 14.1006L18.0819 15.2723H14.6869C14.3635 15.2723 14.1011 15.0099 14.1011 14.6865C14.1011 14.3631 14.3635 14.1006 14.6869 14.1006H18.3795Z" fill="#FF9933"/>
</g>
<defs>
<clipPath id="clip0_11494_3775">
<rect width="20" height="20" fill="white"/>
</clipPath>
</defs>
</svg>
