<svg width="20" height="20" viewBox="0 0 20 20" fill="none" xmlns="http://www.w3.org/2000/svg">
<path d="M9.99993 11.5071C8.52076 11.5071 7.31243 10.3057 7.31243 8.81955C7.31243 7.33344 8.52076 6.139 9.99993 6.139C11.4791 6.139 12.6874 7.34039 12.6874 8.8265C12.6874 10.3126 11.4791 11.5071 9.99993 11.5071ZM9.99993 7.18066C9.09715 7.18066 8.3541 7.91678 8.3541 8.8265C8.3541 9.73622 9.09021 10.4723 9.99993 10.4723C10.9097 10.4723 11.6458 9.73622 11.6458 8.8265C11.6458 7.91678 10.9027 7.18066 9.99993 7.18066Z" fill="#1A2A57"/>
<path d="M9.99993 17.4722C8.97215 17.4722 7.93743 17.0833 7.13187 16.3124C5.08326 14.3402 2.81937 11.1944 3.67354 7.45133C4.44437 4.0555 7.40965 2.53467 9.99993 2.53467C9.99993 2.53467 9.99993 2.53467 10.0069 2.53467C12.5972 2.53467 15.5624 4.0555 16.3333 7.45828C17.1805 11.2013 14.9166 14.3402 12.868 16.3124C12.0624 17.0833 11.0277 17.4722 9.99993 17.4722ZM9.99993 3.57633C7.9791 3.57633 5.38187 4.65272 4.69437 7.6805C3.94437 10.9513 5.99993 13.7708 7.86104 15.5555C9.06243 16.7152 10.9444 16.7152 12.1458 15.5555C13.9999 13.7708 16.0555 10.9513 15.3194 7.6805C14.6249 4.65272 12.0208 3.57633 9.99993 3.57633Z" fill="#1A2A57"/>
<path d="M1.55361 12.7927C1.67092 12.8758 1.81112 12.9204 1.95487 12.9205C2.06588 12.9203 2.17524 12.8935 2.27381 12.8425C2.37238 12.7914 2.45729 12.7175 2.52142 12.6269C2.58555 12.5362 2.62704 12.4316 2.64242 12.3217C2.6578 12.2117 2.64662 12.0997 2.60982 11.995C2.35203 11.2614 2.22098 10.4893 2.22225 9.71173C2.22017 8.98856 2.33378 8.26971 2.55878 7.58243C2.58796 7.49567 2.5997 7.404 2.59332 7.31269C2.58695 7.22137 2.56259 7.13222 2.52165 7.05035C2.4807 6.96849 2.42398 6.89552 2.35473 6.83565C2.28549 6.77578 2.2051 6.73019 2.11817 6.7015C2.03125 6.67281 1.93951 6.66159 1.84824 6.66847C1.75696 6.67536 1.66795 6.70022 1.58631 6.74162C1.50468 6.78303 1.43203 6.84016 1.37255 6.90974C1.31307 6.97932 1.26794 7.05997 1.23973 7.14705C0.677988 8.87576 0.699132 10.7411 1.29992 12.4566C1.34766 12.5922 1.4363 12.7096 1.55361 12.7927Z" fill="#F44336"/>
<path d="M18.5955 12.7927C18.4782 12.8758 18.338 12.9204 18.1943 12.9205C18.0833 12.9203 17.9739 12.8935 17.8753 12.8425C17.7768 12.7914 17.6919 12.7175 17.6277 12.6269C17.5636 12.5362 17.5221 12.4316 17.5067 12.3217C17.4913 12.2117 17.5025 12.0997 17.5393 11.995C17.7971 11.2614 17.9282 10.4893 17.9269 9.71173C17.929 8.98856 17.8154 8.26971 17.5904 7.58243C17.5612 7.49567 17.5494 7.404 17.5558 7.31269C17.5622 7.22137 17.5865 7.13222 17.6275 7.05035C17.6684 6.96849 17.7252 6.89552 17.7944 6.83565C17.8636 6.77578 17.944 6.73019 18.031 6.7015C18.1179 6.67281 18.2096 6.66159 18.3009 6.66847C18.3922 6.67536 18.4812 6.70022 18.5628 6.74162C18.6445 6.78303 18.7171 6.84016 18.7766 6.90974C18.8361 6.97932 18.8812 7.05997 18.9094 7.14705C19.4712 8.87576 19.45 10.7411 18.8492 12.4566C18.8015 12.5922 18.7128 12.7096 18.5955 12.7927Z" fill="#F44336"/>
</svg>
