<svg width="16" height="16" viewBox="0 0 16 16" fill="none" xmlns="http://www.w3.org/2000/svg">
<path d="M5.80084 8.92773C6.01247 9.42755 6.38967 9.84109 6.86334 10.0986C6.38942 9.8412 6.01234 9.42788 5.80084 8.92773ZM9.97858 9.33398C9.72113 9.71485 9.35695 10.018 8.92877 10.1992C9.35691 10.0178 9.72105 9.71404 9.97858 9.33301V9.33398ZM8.9278 5.80078C9.42794 6.01228 9.84126 6.38936 10.0987 6.86328C9.84115 6.38961 9.42761 6.01241 8.9278 5.80078ZM7.07135 5.80078H7.07233C7.00083 5.83101 6.93109 5.86456 6.86334 5.90137C6.59283 6.04846 6.35396 6.24663 6.15924 6.48242L6.02155 6.66602C6.279 6.28512 6.64314 5.98203 7.07135 5.80078Z" fill="#616161" stroke="#616161"/>
<path d="M8 14.0135C5.49333 14.0135 3.12667 12.5468 1.5 10.0002C0.793335 8.90015 0.793335 7.10682 1.5 6.00015C3.13333 3.45348 5.5 1.98682 8 1.98682C10.5 1.98682 12.8667 3.45348 14.4933 6.00015C15.2 7.10015 15.2 8.89348 14.4933 10.0002C12.8667 12.5468 10.5 14.0135 8 14.0135ZM8 2.98682C5.84667 2.98682 3.78667 4.28015 2.34667 6.54015C1.84667 7.32015 1.84667 8.68015 2.34667 9.46015C3.78667 11.7201 5.84667 13.0135 8 13.0135C10.1533 13.0135 12.2133 11.7201 13.6533 9.46015C14.1533 8.68015 14.1533 7.32015 13.6533 6.54015C12.2133 4.28015 10.1533 2.98682 8 2.98682Z" fill="#616161"/>
</svg>
