<svg width="20" height="20" viewBox="0 0 20 20" fill="none" xmlns="http://www.w3.org/2000/svg">
<path d="M13.6999 2.4585C16.3211 2.4585 18.4586 4.60699 18.4587 7.2417C18.4587 9.95266 17.2636 12.2374 15.6618 13.9907C14.0555 15.749 12.0663 16.942 10.5544 17.4604L10.5475 17.4634C10.4095 17.5131 10.2202 17.5415 9.99969 17.5415C9.77945 17.5415 9.59074 17.513 9.45282 17.4634L9.44598 17.4604L9.15692 17.355C7.68693 16.7902 5.84367 15.6373 4.33759 13.9878C2.73577 12.2333 1.54169 9.94821 1.54169 7.2417C1.54176 4.59917 3.67872 2.4585 6.30048 2.4585C7.57617 2.45861 8.76481 2.95632 9.6452 3.84424L9.99969 4.20166L10.3552 3.84424C11.2356 2.95625 12.4241 2.45853 13.6999 2.4585ZM13.7087 2.7085C12.2831 2.7085 10.9585 3.37571 10.1061 4.52783V4.52881C10.1001 4.53696 10.071 4.56295 10.0085 4.56299C9.94615 4.56299 9.91704 4.5371 9.91083 4.52881L9.9079 4.5249C9.03958 3.36739 7.72589 2.70864 6.30048 2.7085C3.81335 2.7085 1.79176 4.74332 1.79169 7.2417C1.79169 10.2613 3.24685 12.5967 4.91864 14.2437C6.58428 15.8845 8.50028 16.8798 9.52997 17.2319L9.53387 17.2329C9.68483 17.2832 9.86716 17.2964 10.0046 17.2964C10.142 17.2964 10.3244 17.2832 10.4753 17.2329L10.4792 17.231C11.5038 16.879 13.419 15.8871 15.0856 14.2476C16.7587 12.6016 18.2165 10.2657 18.2165 7.2417C18.2164 4.74343 16.1957 2.70867 13.7087 2.7085Z" fill="#F2F2F2" stroke="#F2F2F2"/>
</svg>
