<svg width="20" height="20" viewBox="0 0 20 20" fill="none" xmlns="http://www.w3.org/2000/svg">
<path d="M14.1665 18.9584H5.83317C2.15817 18.9584 1.0415 17.8417 1.0415 14.1667V5.83342C1.0415 2.15841 2.15817 1.04175 5.83317 1.04175H7.08317C8.5415 1.04175 8.99984 1.51675 9.58317 2.29175L10.8332 3.95841C11.1082 4.32508 11.1498 4.37508 11.6665 4.37508H14.1665C17.8415 4.37508 18.9582 5.49175 18.9582 9.16675V14.1667C18.9582 17.8417 17.8415 18.9584 14.1665 18.9584ZM5.83317 2.29175C2.84984 2.29175 2.2915 2.85841 2.2915 5.83342V14.1667C2.2915 17.1417 2.84984 17.7084 5.83317 17.7084H14.1665C17.1498 17.7084 17.7082 17.1417 17.7082 14.1667V9.16675C17.7082 6.19175 17.1498 5.62508 14.1665 5.62508H11.6665C10.5998 5.62508 10.2498 5.25842 9.83317 4.70842L8.58317 3.04175C8.14984 2.46675 8.0165 2.29175 7.08317 2.29175H5.83317Z" fill="#616161"/>
<path d="M16.6665 5.94175C16.3248 5.94175 16.0415 5.65841 16.0415 5.31675V4.16675C16.0415 2.85008 15.4832 2.29175 14.1665 2.29175H6.6665C6.32484 2.29175 6.0415 2.00841 6.0415 1.66675C6.0415 1.32508 6.32484 1.04175 6.6665 1.04175H14.1665C16.1832 1.04175 17.2915 2.15008 17.2915 4.16675V5.31675C17.2915 5.65841 17.0082 5.94175 16.6665 5.94175Z" fill="#616161"/>
</svg>
