<svg width="22" height="22" viewBox="0 0 22 22" fill="none" xmlns="http://www.w3.org/2000/svg">
<path d="M8.68088 14.0066C8.50672 14.0066 8.33255 13.9424 8.19505 13.8049C7.44338 13.0533 7.03088 12.0541 7.03088 10.9999C7.03088 8.80909 8.80922 7.03076 11.0001 7.03076C12.0542 7.03076 13.0534 7.44326 13.8051 8.19493C13.9334 8.32326 14.0067 8.49743 14.0067 8.68076C14.0067 8.8641 13.9334 9.03826 13.8051 9.16659L9.16672 13.8049C9.02922 13.9424 8.85505 14.0066 8.68088 14.0066ZM11.0001 8.40576C9.57005 8.40576 8.40588 9.56993 8.40588 10.9999C8.40588 11.4583 8.52505 11.8983 8.74505 12.2833L12.2834 8.74493C11.8984 8.52493 11.4584 8.40576 11.0001 8.40576Z" fill="#B6B6B6"/>
<path d="M5.13331 16.9673C4.97748 16.9673 4.81248 16.9123 4.68415 16.8023C3.70331 15.9681 2.82331 14.9414 2.07165 13.7498C1.09998 12.2373 1.09998 9.77145 2.07165 8.24978C4.30831 4.74811 7.56248 2.73145 11 2.73145C13.0166 2.73145 15.0058 3.42811 16.7475 4.73895C17.05 4.96811 17.1141 5.39895 16.885 5.70145C16.6558 6.00395 16.225 6.06811 15.9225 5.83895C14.4191 4.70228 12.7141 4.10645 11 4.10645C8.03914 4.10645 5.20665 5.88478 3.22665 8.99228C2.53915 10.0648 2.53915 11.9348 3.22665 13.0073C3.91415 14.0798 4.70248 15.0056 5.57331 15.7573C5.85748 16.0048 5.89415 16.4356 5.64665 16.7289C5.51831 16.8848 5.32581 16.9673 5.13331 16.9673Z" fill="#B6B6B6"/>
<path d="M11 19.2685C9.78081 19.2685 8.58914 19.021 7.44331 18.5352C7.09498 18.3885 6.92998 17.9852 7.07664 17.6369C7.22331 17.2885 7.62664 17.1235 7.97498 17.2702C8.94664 17.6827 9.96414 17.8935 10.9908 17.8935C13.9516 17.8935 16.7841 16.1152 18.7641 13.0077C19.4516 11.9352 19.4516 10.0652 18.7641 8.9927C18.48 8.54354 18.1683 8.1127 17.8383 7.70937C17.6 7.41604 17.6458 6.9852 17.9391 6.7377C18.2325 6.49937 18.6633 6.53604 18.9108 6.83854C19.2683 7.27854 19.6166 7.7552 19.9283 8.2502C20.9 9.7627 20.9 12.2285 19.9283 13.7502C17.6916 17.2519 14.4375 19.2685 11 19.2685Z" fill="#B6B6B6"/>
<path d="M11.6325 14.914C11.3117 14.914 11.0183 14.6848 10.9542 14.3548C10.8808 13.979 11.1283 13.6215 11.5042 13.5573C12.5125 13.374 13.3558 12.5307 13.5392 11.5223C13.6125 11.1465 13.97 10.9082 14.3458 10.9723C14.7217 11.0457 14.9692 11.4032 14.8958 11.779C14.6025 13.3648 13.3375 14.6207 11.7608 14.914C11.715 14.9048 11.6783 14.914 11.6325 14.914Z" fill="#B6B6B6"/>
<path d="M1.83328 20.854C1.65911 20.854 1.48495 20.7898 1.34745 20.6523C1.08161 20.3865 1.08161 19.9465 1.34745 19.6807L8.19495 12.8332C8.46078 12.5673 8.90078 12.5673 9.16661 12.8332C9.43245 13.099 9.43245 13.539 9.16661 13.8048L2.31911 20.6523C2.18161 20.7898 2.00745 20.854 1.83328 20.854Z" fill="#B6B6B6"/>
<path d="M13.3191 9.36816C13.145 9.36816 12.9708 9.30399 12.8333 9.16649C12.5675 8.90066 12.5675 8.46066 12.8333 8.19482L19.6808 1.34732C19.9466 1.08149 20.3866 1.08149 20.6525 1.34732C20.9183 1.61316 20.9183 2.05316 20.6525 2.31899L13.805 9.16649C13.6675 9.30399 13.4933 9.36816 13.3191 9.36816Z" fill="#B6B6B6"/>
</svg>
