<svg width="16" height="16" viewBox="0 0 16 16" fill="none" xmlns="http://www.w3.org/2000/svg">
<path d="M9.09839 1.90479C9.19528 1.90489 9.28866 1.94368 9.35718 2.01221C9.42557 2.08079 9.46362 2.17413 9.46362 2.271V3.7915H10.5818C10.6296 3.79111 10.6771 3.79986 10.7214 3.81787C10.7663 3.8361 10.8073 3.86276 10.8416 3.89697C10.8758 3.93117 10.9024 3.9723 10.9207 4.01709C10.9386 4.06135 10.9484 4.10898 10.948 4.15674V7.13428C10.9439 8.03595 10.5986 8.90291 9.98218 9.56104C9.39575 10.1871 8.6047 10.5793 7.75464 10.6704V11.2573C7.75464 11.4032 7.81259 11.5438 7.91577 11.647C8.01895 11.7501 8.15955 11.8081 8.30542 11.8081H12.1589V11.7886L12.3074 11.7954C12.6361 11.8123 12.9458 11.9553 13.1726 12.1938C13.3995 12.4327 13.5261 12.7502 13.5261 13.0796C13.526 13.4089 13.3994 13.7256 13.1726 13.9644C12.9458 14.203 12.6362 14.3459 12.3074 14.3628H2.7937C2.74565 14.3628 2.69747 14.3529 2.65308 14.3345C2.60885 14.3161 2.56878 14.2892 2.53491 14.2554C2.50106 14.2215 2.47419 14.1814 2.45581 14.1372C2.43742 14.0928 2.42749 14.0446 2.42749 13.9966C2.42752 13.9486 2.43745 13.9013 2.45581 13.8569C2.4742 13.8126 2.50094 13.7718 2.53491 13.7378C2.56878 13.704 2.60889 13.677 2.65308 13.6587C2.69747 13.6403 2.74565 13.6313 2.7937 13.6313H12.2908C12.4308 13.6221 12.562 13.5599 12.658 13.4575C12.7538 13.3551 12.8073 13.2199 12.8074 13.0796C12.8074 12.9392 12.7539 12.8032 12.658 12.7007C12.5634 12.5998 12.4344 12.5384 12.2966 12.5278H8.29272C7.95282 12.5278 7.62683 12.3922 7.38647 12.1519C7.14613 11.9115 7.0115 11.5855 7.01147 11.2456V10.6704C6.15911 10.5828 5.36461 10.1928 4.77515 9.56689C4.15565 8.90904 3.80864 8.04083 3.80347 7.13721V4.15967C3.80311 4.11193 3.81186 4.06426 3.82983 4.02002C3.84808 3.97522 3.87474 3.93411 3.90894 3.8999C3.94313 3.86571 3.98427 3.83905 4.02905 3.8208C4.07328 3.80283 4.12098 3.79408 4.1687 3.79443H5.27808V2.271C5.27808 2.17395 5.31688 2.08083 5.3855 2.01221C5.45411 1.94364 5.54728 1.90479 5.64429 1.90479C5.74111 1.90491 5.8336 1.94376 5.9021 2.01221C5.97072 2.08083 6.00952 2.17395 6.00952 2.271V3.79443H8.73218V2.271C8.73218 2.17395 8.77098 2.08083 8.8396 2.01221C8.90821 1.94362 9.00137 1.90479 9.09839 1.90479ZM4.54077 7.27393H4.53687C4.54226 7.60859 4.60342 7.94056 4.72437 8.25342C4.86164 8.60837 5.06897 8.93219 5.33374 9.20557C5.5987 9.47907 5.91669 9.6967 6.26733 9.84521C6.6179 9.99365 6.99504 10.0698 7.37573 10.0698C7.75642 10.0698 8.13358 9.99369 8.48413 9.84521C8.83468 9.6967 9.15185 9.47901 9.41675 9.20557C9.68156 8.93219 9.88882 8.6084 10.0261 8.25342C10.1634 7.89829 10.2276 7.51874 10.2156 7.13818V4.52295H9.46362V6.48291L9.45776 6.55518C9.4533 6.57881 9.44636 6.60211 9.43726 6.62451C9.41901 6.66939 9.39144 6.71037 9.35718 6.74463C9.32308 6.77864 9.28263 6.80554 9.23804 6.82373C9.19383 6.84169 9.14609 6.85044 9.09839 6.8501V6.85107H5.65894V6.8501C5.61107 6.85051 5.56365 6.84175 5.51929 6.82373C5.47442 6.8055 5.43342 6.77886 5.39917 6.74463C5.36496 6.71042 5.33832 6.66932 5.32007 6.62451C5.30183 6.57961 5.29207 6.53137 5.29272 6.48291V4.52295H4.54077V7.27393ZM6.01831 6.10693H8.74097V4.52295H6.01831V6.10693Z" fill="white" stroke="white" stroke-width="0.28125"/>
</svg>
