<svg width="20" height="20" viewBox="0 0 20 20" fill="none" xmlns="http://www.w3.org/2000/svg">
<path d="M6.67488 17.1649H6.44531C3.75293 17.1649 1.5625 14.9745 1.5625 12.2821V12.1552C1.56252 12.0307 1.60218 11.9095 1.67572 11.8091C1.74926 11.7087 1.85288 11.6343 1.97154 11.5967C2.0902 11.5591 2.21774 11.5603 2.33569 11.6C2.45364 11.6398 2.55586 11.7161 2.62754 11.8179C3.32297 12.8056 4.45813 13.3953 5.66406 13.3953H7.26957L7.31102 13.394C7.40159 13.3913 7.49156 13.4096 7.57386 13.4475C7.65617 13.4854 7.72856 13.5419 7.78534 13.6125C7.84213 13.6831 7.88177 13.7659 7.90114 13.8544C7.92051 13.943 7.91909 14.0348 7.89699 14.1226L7.24309 16.7219C7.21124 16.8485 7.13805 16.9608 7.03511 17.041C6.93218 17.1213 6.8054 17.1649 6.67488 17.1649Z" fill="#A3001E"/>
<path d="M7.27887 14.5666H5.66406C2.97168 14.5666 0.78125 12.3762 0.78125 9.68381V8.61522C0.781253 8.48717 0.823201 8.36265 0.900678 8.2607C0.978154 8.15876 1.08689 8.08499 1.21026 8.0507C1.33363 8.01641 1.46484 8.02347 1.58381 8.07081C1.70279 8.11815 1.80298 8.20316 1.86906 8.31284C2.29757 9.02312 2.8988 9.61345 3.6168 10.0289C4.35437 10.4549 5.19738 10.6801 6.05473 10.6801L6.05988 10.6801L8.18234 10.6988C8.27437 10.6996 8.36492 10.7221 8.44665 10.7644C8.52838 10.8067 8.599 10.8677 8.65277 10.9424C8.70654 11.0171 8.74195 11.1034 8.75614 11.1943C8.77034 11.2852 8.76291 11.3782 8.73445 11.4658L8.01363 13.6841C8.01113 13.6918 8.00848 13.6995 8.00562 13.7071L7.82812 14.1848C7.78647 14.2969 7.71151 14.3936 7.61333 14.4618C7.51515 14.5301 7.39844 14.5666 7.27887 14.5666Z" fill="#E5002E"/>
<path d="M8.17723 11.8707L8.17203 11.8707L6.05219 11.8521C2.71473 11.8507 3.90625e-05 9.13512 0 5.79739V2.24313C8.4446e-06 2.11058 0.0449579 1.98195 0.127508 1.87825C0.210058 1.77454 0.32533 1.70189 0.4545 1.67216C0.58367 1.64243 0.719105 1.65737 0.838687 1.71454C0.958269 1.77172 1.05493 1.86775 1.11289 1.98696C1.1448 2.05246 4.37406 8.56613 8.97953 8.56613C9.07535 8.56615 9.1697 8.58966 9.25432 8.63461C9.33894 8.67955 9.41125 8.74456 9.46492 8.82394C9.51858 8.90332 9.55196 8.99464 9.56214 9.08992C9.57231 9.18519 9.55897 9.28151 9.52328 9.37043L8.95754 10.7793L8.73445 11.4659C8.69621 11.5835 8.62171 11.6861 8.52161 11.7588C8.42151 11.8315 8.30096 11.8707 8.17723 11.8707Z" fill="#FF6363"/>
<path d="M13.5546 17.165H13.3251C13.1945 17.165 13.0677 17.1214 12.9648 17.0411C12.8619 16.9609 12.7887 16.8486 12.7568 16.722L12.1029 14.1227C12.0581 13.9446 12.0994 13.7557 12.2145 13.6126C12.3297 13.4694 12.5056 13.3887 12.6889 13.3941L12.7303 13.3954H14.3358C15.5418 13.3954 16.6769 12.8057 17.3724 11.818C17.4441 11.7162 17.5463 11.6398 17.6642 11.6001C17.7822 11.5603 17.9098 11.5591 18.0284 11.5967C18.1471 11.6343 18.2507 11.7087 18.3243 11.8091C18.3978 11.9096 18.4374 12.0308 18.4374 12.1553V12.2822C18.4374 14.9746 16.247 17.165 13.5546 17.165Z" fill="#730B00"/>
<path d="M14.3359 14.5667H12.721C12.6015 14.5667 12.4848 14.5301 12.3866 14.4618C12.2884 14.3936 12.2135 14.2969 12.1718 14.1848L11.9943 13.7071C11.9915 13.6995 11.9888 13.6919 11.9863 13.6841L11.2655 11.4658C11.2371 11.3782 11.2296 11.2852 11.2438 11.1943C11.258 11.1034 11.2934 11.0171 11.3472 10.9424C11.401 10.8677 11.4716 10.8067 11.5533 10.7644C11.635 10.7221 11.7256 10.6996 11.8176 10.6988L13.9401 10.6801L13.9452 10.6801C14.8025 10.6801 15.6455 10.4549 16.3832 10.0289C17.1012 9.61346 17.7024 9.02313 18.1309 8.31284C18.197 8.20316 18.2972 8.11815 18.4161 8.07081C18.5351 8.02347 18.6663 8.01641 18.7897 8.0507C18.9131 8.085 19.0218 8.15876 19.0993 8.2607C19.1768 8.36265 19.2187 8.48717 19.2187 8.61522V9.68381C19.2187 12.3762 17.0282 14.5667 14.3359 14.5667Z" fill="#A3001E"/>
<path d="M11.8227 11.8709C11.699 11.8709 11.5784 11.8317 11.4783 11.759C11.3782 11.6862 11.3037 11.5837 11.2655 11.466L11.0425 10.7794L10.4767 9.37058C10.441 9.28167 10.4276 9.18534 10.4377 9.09004C10.4479 8.99475 10.4813 8.9034 10.535 8.82401C10.5886 8.74461 10.661 8.6796 10.7456 8.63467C10.8303 8.58974 10.9246 8.56626 11.0205 8.56629C15.6345 8.56629 18.8551 2.05289 18.8871 1.98707C19.0065 1.74164 19.2795 1.61082 19.5455 1.6723C19.6747 1.70203 19.79 1.77469 19.8725 1.87839C19.9551 1.9821 20 2.11073 20 2.24328V5.79754C20 9.13527 17.2853 11.8509 13.9478 11.8522L11.828 11.8709L11.8227 11.8709Z" fill="#E5002E"/>
<path d="M6.3785 18.3425C6.28938 18.3425 6.20144 18.3221 6.12136 18.283C6.04127 18.2439 5.97117 18.1871 5.91637 18.1168C5.86157 18.0465 5.82353 17.9647 5.80514 17.8775C5.78674 17.7903 5.78848 17.7 5.81022 17.6136L6.76366 13.8237L3.76471 11.318C3.67494 11.243 3.60968 11.1429 3.57731 11.0305C3.54495 10.9181 3.54697 10.7986 3.58312 10.6873C3.61927 10.5761 3.68789 10.4782 3.78014 10.4063C3.87239 10.3343 3.98406 10.2917 4.10077 10.2838L7.99975 10.0194L9.45604 6.39292C9.49963 6.28439 9.57471 6.19139 9.67161 6.12589C9.76851 6.06039 9.88279 6.02539 9.99975 6.02539C10.1167 6.02539 10.231 6.06039 10.3279 6.12589C10.4248 6.19139 10.4999 6.28439 10.5435 6.39292L11.9997 10.0194L15.8988 10.2838C16.0155 10.2917 16.1271 10.3343 16.2194 10.4063C16.3117 10.4782 16.3803 10.5761 16.4164 10.6873C16.4526 10.7986 16.4546 10.9181 16.4222 11.0305C16.3899 11.1429 16.3246 11.243 16.2348 11.318L13.2358 13.8237L14.1893 17.6136C14.2178 17.727 14.2117 17.8464 14.1718 17.9563C14.1319 18.0663 14.06 18.1618 13.9654 18.2305C13.8708 18.2993 13.7577 18.3381 13.6408 18.3421C13.5239 18.3461 13.4085 18.3149 13.3095 18.2528L9.99975 16.1749L6.68998 18.2528C6.59668 18.3114 6.48871 18.3425 6.3785 18.3425Z" fill="#FFE645"/>
<path d="M15.8988 10.2838L11.9997 10.0195L10.5434 6.39297C10.4999 6.28451 10.4249 6.19156 10.3281 6.12605C10.2313 6.06055 10.1171 6.0255 10.0002 6.02539V16.1752L13.3095 18.2528C13.4085 18.315 13.5239 18.3461 13.6408 18.3421C13.7577 18.3382 13.8708 18.2993 13.9654 18.2306C14.0601 18.1618 14.132 18.0663 14.1718 17.9564C14.2117 17.8464 14.2178 17.727 14.1893 17.6136L13.2358 13.8237L16.2348 11.318C16.3246 11.243 16.3898 11.1429 16.4222 11.0305C16.4545 10.9181 16.4525 10.7986 16.4164 10.6873C16.3802 10.5761 16.3116 10.4782 16.2194 10.4063C16.1271 10.3344 16.0155 10.2917 15.8988 10.2838Z" fill="#FFC12E"/>
<path d="M10.0001 13.8643C9.69231 13.8643 9.38997 13.7392 9.172 13.5212C8.95325 13.3025 8.82825 13.0009 8.82825 12.6924C8.82825 12.3838 8.95325 12.0814 9.172 11.8634C9.38997 11.6455 9.69157 11.5205 10.0001 11.5205C10.3087 11.5205 10.6111 11.6455 10.829 11.8634C11.047 12.0822 11.172 12.3838 11.172 12.6924C11.172 13.0009 11.047 13.3025 10.829 13.5212C10.611 13.7392 10.3087 13.8643 10.0001 13.8643Z" fill="#FFC12E"/>
<path d="M10.0002 11.5205V13.8643C10.3088 13.8642 10.6111 13.7392 10.829 13.5212C11.047 13.3025 11.172 13.0009 11.172 12.6924C11.172 12.3838 11.047 12.0822 10.829 11.8634C10.6111 11.6455 10.3088 11.5205 10.0002 11.5205Z" fill="#FF9300"/>
</svg>
