<svg width="88" height="88" viewBox="0 0 88 88" fill="none" xmlns="http://www.w3.org/2000/svg">
<path d="M47.344 56.6716L41.36 50.6876C40.656 49.9836 39.6 49.9836 38.896 50.6876C38.192 51.3916 38.192 52.4476 38.896 53.1516L46.112 60.3676C46.464 60.7196 46.992 60.8956 47.344 60.8956C47.872 60.8956 48.224 60.7196 48.576 60.3676L63.184 45.7596C63.888 45.0556 63.888 43.9996 63.184 43.2956C62.48 42.5916 61.424 42.5916 60.72 43.2956L47.344 56.6716Z" fill="#FFD166"/>
<path d="M83.776 71.9838L71.808 60.0158C72.688 57.9038 73.392 55.6158 73.568 53.3278C74.096 47.3438 72.336 41.3598 68.464 36.7838C66.352 34.1438 63.712 32.2078 60.72 30.7998V21.6478C60.72 17.4238 57.2 13.9038 52.8 13.9038H48.048V11.4398C48.048 8.79977 45.936 6.68777 43.12 6.68777H37.84C36.96 3.87177 34.32 1.75977 31.328 1.75977C28.16 1.75977 25.696 3.87177 24.816 6.51177H19.536C16.72 6.68777 14.608 8.79977 14.608 11.4398V13.9038H9.85603C5.45603 13.9038 1.93603 17.4238 1.93603 21.6478V78.4958C1.76003 82.7198 5.45603 86.2398 9.85603 86.2398H52.8C57.2 86.2398 60.72 82.7198 60.72 78.3198V72.6878L71.808 83.7758C74.976 86.9438 80.256 87.1198 83.6 83.7758C86.944 80.4318 87.12 75.1518 83.776 71.9838ZM65.824 38.8958C68.992 42.7678 70.576 47.8718 70.048 52.7998C69.344 60.0158 64.768 65.9998 58.432 68.6398H58.256C55.44 69.8718 52.448 70.2238 49.104 70.0478C38.544 68.9918 30.976 59.6638 32.032 49.1038C32.56 44.1758 34.848 39.7758 38.368 36.6078L38.544 36.4318C42.416 33.0878 47.696 31.3278 52.976 31.8558C54.912 32.0318 56.672 32.5598 58.432 33.2638C61.248 34.6718 63.712 36.4318 65.824 38.8958ZM18.128 11.4398C18.128 10.7358 18.832 10.2078 19.536 10.2078H26.4C27.456 10.2078 28.16 9.50377 28.16 8.44777C28.16 6.68777 29.568 5.45577 31.328 5.45577C33.088 5.45577 34.672 6.86377 34.672 8.44777C34.672 9.50377 35.376 10.2078 36.432 10.2078H43.296C44 10.2078 44.704 10.7358 44.704 11.4398V19.8878C44.704 20.5918 44 21.1198 43.296 21.1198H19.536C18.832 21.1198 18.128 20.5918 18.128 19.8878V11.4398ZM52.8 82.7198H9.85603C7.39203 82.7198 5.28003 80.7838 5.28003 78.4958V21.6478C5.28003 19.3598 7.21603 17.4238 9.68003 17.4238H14.432V19.8878C14.432 22.5278 16.544 24.6398 19.36 24.6398H43.12C45.76 24.6398 48.048 22.5278 48.048 19.8878V17.4238H52.8C55.264 17.4238 57.2 19.3598 57.2 21.6478V29.3918C55.968 29.0398 54.56 28.6878 53.152 28.6878C46.816 27.9838 41.008 30.0958 36.432 33.7918H15.312C14.256 33.7918 13.552 34.4958 13.552 35.5518C13.552 36.6078 14.256 37.3118 15.312 37.3118H33.088C31.856 38.8958 30.976 40.4798 30.096 42.4158H15.488C14.432 42.4158 13.728 43.1198 13.728 44.1758C13.728 45.2318 14.432 45.9358 15.488 45.9358H29.216C29.04 46.9918 28.688 48.0478 28.688 49.1038V51.0398H15.488C14.432 51.0398 13.728 51.7438 13.728 52.7998C13.728 53.8558 14.432 54.5598 15.488 54.5598H28.688C28.864 56.3198 29.392 57.9038 29.92 59.6638H15.488C14.432 59.6638 13.728 60.3678 13.728 61.4238C13.728 62.4798 14.432 63.1838 15.488 63.1838H31.68C32.736 65.1198 34.144 66.7038 35.728 68.1118H15.488C14.432 68.1118 13.728 68.8158 13.728 69.8718C13.728 70.9278 14.432 71.6318 15.488 71.6318H41.008C43.472 72.8638 45.936 73.5678 48.752 73.9198C51.568 74.2718 54.384 73.9198 57.2 73.2158V78.6718C57.376 80.6078 55.264 82.7198 52.8 82.7198ZM81.312 81.3118C79.376 83.2478 76.384 83.2478 74.448 81.3118L63.184 70.2238C66 68.4638 68.288 66.1758 70.048 63.3598L81.136 74.4478C83.248 76.3838 83.248 79.3758 81.312 81.3118Z" fill="#1A2A57"/>
</svg>
