<svg width="20" height="20" viewBox="0 0 20 20" fill="none" xmlns="http://www.w3.org/2000/svg">
<path d="M14.1581 8.0918H5.84143C5.49976 8.0918 5.21643 7.80846 5.21643 7.4668C5.21643 7.12513 5.49976 6.8418 5.84143 6.8418H14.1581C14.4997 6.8418 14.7831 7.12513 14.7831 7.4668C14.7831 7.80846 14.4997 8.0918 14.1581 8.0918Z" fill="#616161"/>
<path d="M10 8.0914C9.65833 8.0914 9.375 7.80807 9.375 7.4664V6.06641C9.375 5.72474 9.65833 5.44141 10 5.44141C10.3417 5.44141 10.625 5.72474 10.625 6.06641V7.4664C10.625 7.80807 10.3417 8.0914 10 8.0914Z" fill="#616161"/>
<path d="M5.83337 14.5585C5.49171 14.5585 5.20837 14.2752 5.20837 13.9335C5.20837 13.5918 5.49171 13.3085 5.83337 13.3085C8.93337 13.3085 11.4584 10.6835 11.4584 7.4502C11.4584 7.10853 11.7417 6.8252 12.0834 6.8252C12.425 6.8252 12.7084 7.10853 12.7084 7.4502C12.7084 11.3752 9.62504 14.5585 5.83337 14.5585Z" fill="#616161"/>
<path d="M14.1669 14.5585C12.5252 14.5585 11.0002 13.7419 9.88352 12.2502C9.67519 11.9752 9.73354 11.5836 10.0085 11.3752C10.2835 11.1669 10.6752 11.2252 10.8835 11.5002C11.7669 12.6669 12.9335 13.3085 14.1752 13.3085C14.5169 13.3085 14.8002 13.5919 14.8002 13.9335C14.8002 14.2752 14.5085 14.5585 14.1669 14.5585Z" fill="#616161"/>
<path d="M9.99996 18.9587C5.05829 18.9587 1.04163 14.942 1.04163 10.0003C1.04163 5.05866 5.05829 1.04199 9.99996 1.04199C14.9416 1.04199 18.9583 5.05866 18.9583 10.0003C18.9583 14.942 14.9416 18.9587 9.99996 18.9587ZM9.99996 2.29199C5.74996 2.29199 2.29163 5.75033 2.29163 10.0003C2.29163 14.2503 5.74996 17.7087 9.99996 17.7087C14.25 17.7087 17.7083 14.2503 17.7083 10.0003C17.7083 5.75033 14.25 2.29199 9.99996 2.29199Z" fill="#616161"/>
</svg>
