<svg width="18" height="18" viewBox="0 0 18 18" fill="none" xmlns="http://www.w3.org/2000/svg">
<path d="M9 15.0557C9.28822 15.0557 9.52224 15.289 9.52246 15.5771V16.3398C9.52244 16.6282 9.28831 16.8623 9 16.8623C8.71176 16.8622 8.47853 16.6281 8.47852 16.3398V15.5771C8.47874 15.2891 8.71188 15.0557 9 15.0557ZM9 0.900391C9.44266 0.900391 9.84025 1.14699 10.0361 1.54395L11.6016 4.71582C11.6095 4.73191 11.6213 4.74627 11.6357 4.75684C11.6503 4.76741 11.6677 4.77476 11.6855 4.77734L15.1865 5.28613C15.6244 5.34991 15.9814 5.65144 16.1182 6.07227C16.2548 6.49317 16.1431 6.94693 15.8262 7.25586L13.293 9.72559C13.2801 9.73814 13.2702 9.75344 13.2646 9.77051C13.2591 9.78748 13.2578 9.80565 13.2607 9.82324L13.8594 13.3105C13.9341 13.7467 13.7575 14.1803 13.3994 14.4404C13.1974 14.5873 12.9604 14.6621 12.7217 14.6621C12.5378 14.6621 12.3528 14.6178 12.1826 14.5283L9.05176 12.8818C9.03584 12.8735 9.01798 12.8691 9 12.8691C8.98203 12.8692 8.96415 12.8735 8.94824 12.8818L5.81738 14.5283C5.42568 14.7342 4.95869 14.7006 4.60059 14.4404C4.24252 14.1803 4.06589 13.7468 4.14062 13.3105L4.73926 9.82324C4.7422 9.80564 4.74087 9.78748 4.73535 9.77051C4.72979 9.75342 4.71988 9.73814 4.70703 9.72559L2.17383 7.25586C1.85697 6.94695 1.74516 6.49313 1.88184 6.07227C2.01866 5.6513 2.3764 5.34976 2.81445 5.28613L6.31445 4.77734C6.33227 4.77475 6.34969 4.76742 6.36426 4.75684C6.37879 4.74626 6.39048 4.73193 6.39844 4.71582L7.96387 1.54395C8.15974 1.14701 8.55737 0.900412 9 0.900391ZM8.95117 1.9541C8.93445 1.96166 8.9153 1.97568 8.90039 2.00586L7.33496 5.17871C7.25216 5.34642 7.12979 5.49156 6.97852 5.60156C6.82699 5.71165 6.6502 5.78363 6.46484 5.81055L2.96387 6.31934C2.9307 6.32424 2.91173 6.33801 2.89941 6.35156L2.875 6.39453C2.8716 6.40497 2.86691 6.42393 2.86914 6.44434C2.87118 6.46256 2.87828 6.4853 2.90234 6.50879L5.43555 8.97754C5.56969 9.10825 5.67064 9.27011 5.72852 9.44824C5.78629 9.6262 5.80016 9.81559 5.76855 10L5.16992 13.4873C5.16434 13.5203 5.17163 13.5427 5.18066 13.5586C5.19077 13.5763 5.20496 13.5892 5.21387 13.5957C5.22281 13.6022 5.23966 13.612 5.25977 13.6162C5.27776 13.6199 5.30119 13.6192 5.33105 13.6035L8.46289 11.958C8.62859 11.8709 8.81281 11.8252 9 11.8252C9.18729 11.8252 9.37232 11.8708 9.53809 11.958L12.6689 13.6045C12.6986 13.62 12.7223 13.6199 12.7402 13.6162C12.7603 13.612 12.7771 13.6022 12.7861 13.5957C12.795 13.5892 12.8092 13.5764 12.8193 13.5586C12.8284 13.5427 12.8357 13.5204 12.8301 13.4873L12.2324 10C12.2008 9.81558 12.2137 9.62621 12.2715 9.44824C12.3294 9.27012 12.4303 9.10825 12.5645 8.97754L15.0977 6.50879C15.1218 6.48532 15.1288 6.46257 15.1309 6.44434C15.1331 6.42396 15.1294 6.40507 15.126 6.39453C15.1226 6.38403 15.1144 6.36676 15.1006 6.35156C15.0882 6.338 15.0694 6.3242 15.0361 6.31934L11.5352 5.81055C11.3498 5.78364 11.174 5.71162 11.0225 5.60156C10.871 5.4915 10.7479 5.34662 10.665 5.17871L9.09961 2.00586C9.08464 1.97565 9.06556 1.96164 9.04883 1.9541C9.03014 1.9457 9.01102 1.94434 9 1.94434C8.98893 1.94435 8.9698 1.94571 8.95117 1.9541ZM15.3564 10.4395C15.4456 10.1652 15.7405 10.0145 16.0146 10.1035L16.7393 10.3398C17.0133 10.429 17.1632 10.723 17.0742 10.9971C17.0025 11.2178 16.798 11.3583 16.5781 11.3584C16.5233 11.3584 16.4681 11.349 16.416 11.332L15.6914 11.0967C15.4174 11.0075 15.2676 10.7135 15.3564 10.4395ZM1.98535 10.1035C2.2596 10.0144 2.55446 10.1643 2.64355 10.4385C2.73263 10.7127 2.58278 11.0076 2.30859 11.0967L1.58398 11.332C1.53057 11.3494 1.4755 11.3574 1.42188 11.3574C1.20214 11.3573 0.997589 11.2176 0.925781 10.9971C0.836696 10.7229 0.986545 10.428 1.26074 10.3389L1.98535 10.1035ZM13.2607 1.62305C13.4301 1.38988 13.756 1.33761 13.9893 1.50684C14.2225 1.67626 14.2747 2.00308 14.1055 2.23633L13.6572 2.85254C13.5551 2.99313 13.3955 3.06833 13.2344 3.06836C13.1519 3.06839 13.0709 3.04876 12.998 3.01172L12.9277 2.96875C12.6944 2.79928 12.643 2.47249 12.8125 2.23926L13.2607 1.62305ZM4.00879 1.50488C4.24207 1.33553 4.56884 1.38693 4.73828 1.62012L5.18555 2.23633C5.35504 2.4696 5.30357 2.79638 5.07031 2.96582C4.97779 3.03307 4.87009 3.06543 4.76367 3.06543C4.68131 3.0655 4.59977 3.04616 4.52637 3.00879C4.45297 2.97136 4.38919 2.91728 4.34082 2.85059L3.89355 2.2334C3.72416 2.00018 3.77562 1.67434 4.00879 1.50488Z" fill="#5F55D3" stroke="#5F55D3" stroke-width="0.2"/>
</svg>
