<svg width="40" height="40" viewBox="0 0 40 40" fill="none" xmlns="http://www.w3.org/2000/svg">
<g clip-path="url(#clip0_11132_10545)">
<path d="M20 40C31.0457 40 40 31.0457 40 20C40 8.95431 31.0457 0 20 0C8.95431 0 0 8.95431 0 20C0 31.0457 8.95431 40 20 40Z" fill="#0B69C7"/>
<path d="M14.9987 11.9971C14.9993 12.5907 14.8238 13.1711 14.4943 13.6649C14.1649 14.1587 13.6964 14.5437 13.1481 14.7711C12.5998 14.9985 11.9964 15.0582 11.4142 14.9425C10.8319 14.8268 10.2971 14.5411 9.8774 14.1213C9.45767 13.7016 9.17189 13.1668 9.05622 12.5846C8.94056 12.0023 9.00021 11.3989 9.22763 10.8506C9.45506 10.3023 9.84002 9.83381 10.3338 9.50439C10.8276 9.17496 11.408 8.99943 12.0016 9C12.7963 9.00077 13.5581 9.31678 14.12 9.87868C14.6819 10.4406 14.998 11.2025 14.9987 11.9971Z" fill="white"/>
<path d="M13.3586 16H10.6388C10.2853 16 9.99872 16.3389 9.99872 16.7569V30.2431C9.99872 30.6611 10.2853 31 10.6388 31H13.3586C13.7121 31 13.9987 30.6611 13.9987 30.2431V16.7569C13.9987 16.3389 13.7121 16 13.3586 16Z" fill="white"/>
<path d="M30.9987 23.8802V30.315C30.9987 30.4967 30.9239 30.6709 30.7908 30.7994C30.6576 30.9278 30.477 31 30.2887 31H26.7629C26.5746 31 26.394 30.9278 26.2608 30.7994C26.1277 30.6709 26.0529 30.4967 26.0529 30.315V24.0805C26.0529 23.1488 26.3327 20.017 23.5318 20.017C21.3597 20.017 20.9175 22.1707 20.8242 23.1372V30.3295C20.8203 30.5077 20.7446 30.6773 20.6132 30.8025C20.4818 30.9277 20.3049 30.9985 20.1203 31H16.7087C16.6154 31.0004 16.5229 30.9829 16.4365 30.9486C16.3502 30.9143 16.2718 30.8639 16.2058 30.8002C16.1398 30.7365 16.0875 30.6609 16.052 30.5776C16.0164 30.4943 15.9983 30.4051 15.9987 30.315V16.9056C15.9983 16.8154 16.0164 16.726 16.0519 16.6426C16.0874 16.5591 16.1396 16.4833 16.2056 16.4193C16.2716 16.3554 16.35 16.3047 16.4363 16.2701C16.5227 16.2355 16.6152 16.2177 16.7087 16.2177H20.1203C20.2149 16.2161 20.3089 16.2328 20.3968 16.2667C20.4847 16.3006 20.5647 16.351 20.6322 16.415C20.6997 16.479 20.7533 16.5554 20.7899 16.6396C20.8265 16.7238 20.8453 16.8143 20.8453 16.9056V18.0666C21.6515 16.9056 22.8489 16 25.397 16C31.0318 15.9971 30.9987 21.0851 30.9987 23.8802Z" fill="white"/>
</g>
<defs>
<clipPath id="clip0_11132_10545">
<rect width="40" height="40" fill="white"/>
</clipPath>
</defs>
</svg>
