<svg width="16" height="16" viewBox="0 0 16 16" fill="none" xmlns="http://www.w3.org/2000/svg">
<path d="M7.78821 4.8042C6.74476 4.91067 5.92004 5.79474 5.92004 6.87354V6.8667C5.92009 5.86236 6.63468 5.02838 7.58118 4.83545L7.78821 4.8042ZM8.21204 4.8042C9.11838 4.89641 9.85631 5.57329 10.0372 6.45361C9.84195 5.50486 8.99881 4.79349 8.00012 4.79346L8.21204 4.8042Z" fill="#F5F5F5" stroke="#F5F5F5"/>
<path d="M8 15.1735C7.01333 15.1735 6.01999 14.8002 5.24666 14.0602C3.28 12.1668 1.10666 9.14683 1.92666 5.5535C2.66666 2.2935 5.51333 0.833496 8 0.833496C8 0.833496 8 0.833496 8.00666 0.833496C10.4933 0.833496 13.34 2.2935 14.08 5.56016C14.8933 9.1535 12.72 12.1668 10.7533 14.0602C9.97999 14.8002 8.98666 15.1735 8 15.1735ZM8 1.8335C6.06 1.8335 3.56666 2.86683 2.90666 5.7735C2.18666 8.9135 4.16 11.6202 5.94666 13.3335C7.1 14.4468 8.90666 14.4468 10.06 13.3335C11.84 11.6202 13.8133 8.9135 13.1067 5.7735C12.44 2.86683 9.93999 1.8335 8 1.8335Z" fill="#F5F5F5"/>
</svg>
