<svg width="20" height="20" viewBox="0 0 20 20" fill="none" xmlns="http://www.w3.org/2000/svg">
<path d="M9.99999 11.8084C8.22499 11.8084 6.77499 10.3667 6.77499 8.58337C6.77499 6.80003 8.22499 5.3667 9.99999 5.3667C11.775 5.3667 13.225 6.80837 13.225 8.5917C13.225 10.375 11.775 11.8084 9.99999 11.8084ZM9.99999 6.6167C8.91666 6.6167 8.02499 7.50003 8.02499 8.5917C8.02499 9.68337 8.90833 10.5667 9.99999 10.5667C11.0917 10.5667 11.975 9.68337 11.975 8.5917C11.975 7.50003 11.0833 6.6167 9.99999 6.6167Z" fill="#E69A0C"/>
<path d="M9.99999 18.9665C8.76666 18.9665 7.52499 18.4998 6.55833 17.5748C4.09999 15.2082 1.38333 11.4332 2.40833 6.9415C3.33333 2.8665 6.89166 1.0415 9.99999 1.0415C9.99999 1.0415 9.99999 1.0415 10.0083 1.0415C13.1167 1.0415 16.675 2.8665 17.6 6.94984C18.6167 11.4415 15.9 15.2082 13.4417 17.5748C12.475 18.4998 11.2333 18.9665 9.99999 18.9665ZM9.99999 2.2915C7.57499 2.2915 4.45833 3.58317 3.63333 7.2165C2.73333 11.1415 5.19999 14.5248 7.43333 16.6665C8.87499 18.0582 11.1333 18.0582 12.575 16.6665C14.8 14.5248 17.2667 11.1415 16.3833 7.2165C15.55 3.58317 12.425 2.2915 9.99999 2.2915Z" fill="#1A2A57"/>
</svg>
