<svg width="25" height="24" viewBox="0 0 25 24" fill="none" xmlns="http://www.w3.org/2000/svg">
<path d="M16.315 2H7.935C4.295 2 2.125 4.17 2.125 7.81V16.18C2.125 19.83 4.295 22 7.935 22H16.305C19.945 22 22.115 19.83 22.115 16.19V7.81C22.125 4.17 19.955 2 16.315 2Z" fill="#1A2A57"/>
<path d="M12.1249 10.6904C11.4049 10.6904 10.8149 11.2804 10.8149 12.0004C10.8149 12.7204 11.4049 13.3104 12.1249 13.3104C12.8449 13.3104 13.4349 12.7204 13.4349 12.0004C13.4349 11.2804 12.8449 10.6904 12.1249 10.6904Z" fill="white"/>
<path d="M7.12494 10.6904C6.40494 10.6904 5.81494 11.2804 5.81494 12.0004C5.81494 12.7204 6.40494 13.3104 7.12494 13.3104C7.84494 13.3104 8.43494 12.7204 8.43494 12.0004C8.43494 11.2804 7.84494 10.6904 7.12494 10.6904Z" fill="white"/>
<path d="M17.1249 10.6904C16.4049 10.6904 15.8149 11.2804 15.8149 12.0004C15.8149 12.7204 16.4049 13.3104 17.1249 13.3104C17.8449 13.3104 18.4349 12.7204 18.4349 12.0004C18.4349 11.2804 17.8449 10.6904 17.1249 10.6904Z" fill="white"/>
</svg>
