<svg width="25" height="24" viewBox="0 0 25 24" fill="none" xmlns="http://www.w3.org/2000/svg">
<path d="M5.125 14.75C3.605 14.75 2.375 13.52 2.375 12C2.375 10.48 3.605 9.25 5.125 9.25C6.645 9.25 7.875 10.48 7.875 12C7.875 13.52 6.645 14.75 5.125 14.75ZM5.125 10.75C4.435 10.75 3.875 11.31 3.875 12C3.875 12.69 4.435 13.25 5.125 13.25C5.815 13.25 6.375 12.69 6.375 12C6.375 11.31 5.815 10.75 5.125 10.75Z" fill="#959595"/>
<path d="M19.125 14.75C17.605 14.75 16.375 13.52 16.375 12C16.375 10.48 17.605 9.25 19.125 9.25C20.645 9.25 21.875 10.48 21.875 12C21.875 13.52 20.645 14.75 19.125 14.75ZM19.125 10.75C18.435 10.75 17.875 11.31 17.875 12C17.875 12.69 18.435 13.25 19.125 13.25C19.815 13.25 20.375 12.69 20.375 12C20.375 11.31 19.815 10.75 19.125 10.75Z" fill="#959595"/>
<path d="M12.125 14.75C10.605 14.75 9.375 13.52 9.375 12C9.375 10.48 10.605 9.25 12.125 9.25C13.645 9.25 14.875 10.48 14.875 12C14.875 13.52 13.645 14.75 12.125 14.75ZM12.125 10.75C11.435 10.75 10.875 11.31 10.875 12C10.875 12.69 11.435 13.25 12.125 13.25C12.815 13.25 13.375 12.69 13.375 12C13.375 11.31 12.815 10.75 12.125 10.75Z" fill="#959595"/>
</svg>
