<svg width="18" height="18" viewBox="0 0 18 18" fill="none" xmlns="http://www.w3.org/2000/svg">
<path d="M9 7.89C8.6925 7.89 8.4375 7.635 8.4375 7.3275V4.83C8.4375 4.5225 8.6925 4.2675 9 4.2675C9.3075 4.2675 9.5625 4.5225 9.5625 4.83V7.3275C9.5625 7.6425 9.3075 7.89 9 7.89Z" fill="#1A2A57"/>
<path d="M9.01515 15.2625C7.08014 15.2625 5.15264 14.955 3.31514 14.34C2.63264 14.115 2.11514 13.6275 1.89014 13.0125C1.66514 12.3975 1.74014 11.6925 2.10764 11.0775L3.06014 9.4875C3.27014 9.135 3.45764 8.475 3.45764 8.0625V6.4875C3.45764 3.42 5.94765 0.93 9.01515 0.93C12.0826 0.93 14.5726 3.42 14.5726 6.4875V8.0625C14.5726 8.4675 14.7601 9.135 14.9701 9.4875L15.9226 11.0775C16.2751 11.6625 16.3351 12.36 16.1026 12.9975C15.8701 13.635 15.3601 14.1225 14.7151 14.34C12.8776 14.9625 10.9501 15.2625 9.01515 15.2625ZM9.01515 2.0625C6.57015 2.0625 4.58264 4.05 4.58264 6.495V8.07C4.58264 8.6775 4.34264 9.555 4.02764 10.0725L3.07514 11.67C2.88014 11.9925 2.83514 12.3375 2.94764 12.6375C3.06014 12.9375 3.31514 13.1625 3.67514 13.2825C7.12514 14.43 10.9201 14.43 14.3701 13.2825C14.6926 13.1775 14.9401 12.9375 15.0526 12.6225C15.1726 12.3075 15.1351 11.9625 14.9626 11.67L14.0101 10.08C13.6951 9.5625 13.4551 8.685 13.4551 8.0775V6.5025C13.4476 4.05 11.4601 2.0625 9.01515 2.0625Z" fill="#1A2A57"/>
<path d="M8.99994 17.175C8.19744 17.175 7.40994 16.845 6.83994 16.275C6.26994 15.705 5.93994 14.9175 5.93994 14.115H7.06494C7.06494 14.625 7.27494 15.12 7.63494 15.48C7.99494 15.84 8.48994 16.05 8.99994 16.05C10.0649 16.05 10.9349 15.18 10.9349 14.115H12.0599C12.0599 15.8025 10.6874 17.175 8.99994 17.175Z" fill="#1A2A57"/>
</svg>
