<svg width="20" height="20" viewBox="0 0 20 20" fill="none" xmlns="http://www.w3.org/2000/svg">
<path d="M14.5417 18.9582C13.6 18.9582 12.6083 18.7332 11.5833 18.2998C10.5833 17.8748 9.57501 17.2915 8.59167 16.5832C7.61667 15.8665 6.67501 15.0665 5.78334 14.1915C4.90001 13.2998 4.10001 12.3582 3.39167 11.3915C2.67501 10.3915 2.10001 9.3915 1.69167 8.42484C1.25834 7.3915 1.04167 6.3915 1.04167 5.44984C1.04167 4.79984 1.15834 4.18317 1.38334 3.60817C1.61667 3.0165 1.99167 2.4665 2.50001 1.9915C3.14167 1.35817 3.87501 1.0415 4.65834 1.0415C4.98334 1.0415 5.31667 1.1165 5.60001 1.24984C5.925 1.39984 6.20001 1.62484 6.40001 1.92484L8.33334 4.64984C8.50834 4.8915 8.64167 5.12484 8.73334 5.35817C8.84167 5.60817 8.90001 5.85817 8.90001 6.09984C8.90001 6.4165 8.80834 6.72484 8.63334 7.0165C8.50834 7.2415 8.31667 7.48317 8.07501 7.72484L7.50834 8.3165C7.51667 8.3415 7.52501 8.35817 7.53334 8.37484C7.63334 8.54984 7.83334 8.84984 8.21667 9.29984C8.62501 9.7665 9.00834 10.1915 9.39167 10.5832C9.88334 11.0665 10.2917 11.4498 10.675 11.7665C11.15 12.1665 11.4583 12.3665 11.6417 12.4582L11.625 12.4998L12.2333 11.8998C12.4917 11.6415 12.7417 11.4498 12.9833 11.3248C13.4417 11.0415 14.025 10.9915 14.6083 11.2332C14.825 11.3248 15.0583 11.4498 15.3083 11.6248L18.075 13.5915C18.3833 13.7998 18.6083 14.0665 18.7417 14.3832C18.8667 14.6998 18.925 14.9915 18.925 15.2832C18.925 15.6832 18.8333 16.0832 18.6583 16.4582C18.4833 16.8332 18.2667 17.1582 17.9917 17.4582C17.5167 17.9832 17 18.3582 16.4 18.5998C15.825 18.8332 15.2 18.9582 14.5417 18.9582ZM4.65834 2.2915C4.20001 2.2915 3.77501 2.4915 3.36667 2.8915C2.98334 3.24984 2.71667 3.6415 2.55001 4.0665C2.37501 4.49984 2.29167 4.95817 2.29167 5.44984C2.29167 6.22484 2.47501 7.0665 2.84167 7.93317C3.21667 8.8165 3.74167 9.73317 4.40834 10.6498C5.07501 11.5665 5.83334 12.4582 6.66667 13.2998C7.50001 14.1248 8.4 14.8915 9.32501 15.5665C10.225 16.2248 11.15 16.7582 12.0667 17.1415C13.4917 17.7498 14.825 17.8915 15.925 17.4332C16.35 17.2582 16.725 16.9915 17.0667 16.6082C17.2583 16.3998 17.4083 16.1748 17.5333 15.9082C17.6333 15.6998 17.6833 15.4832 17.6833 15.2665C17.6833 15.1332 17.6583 14.9998 17.5917 14.8498C17.5667 14.7998 17.5167 14.7082 17.3583 14.5998L14.5917 12.6332C14.425 12.5165 14.275 12.4332 14.1333 12.3748C13.95 12.2998 13.875 12.2248 13.5917 12.3998C13.425 12.4832 13.275 12.6082 13.1083 12.7748L12.475 13.3998C12.15 13.7165 11.65 13.7915 11.2667 13.6498L11.0417 13.5498C10.7 13.3665 10.3 13.0832 9.85834 12.7082C9.45834 12.3665 9.02501 11.9665 8.50001 11.4498C8.09167 11.0332 7.68334 10.5915 7.25834 10.0998C6.86667 9.6415 6.58334 9.24984 6.40834 8.92484L6.30834 8.67484C6.25834 8.48317 6.24167 8.37484 6.24167 8.25817C6.24167 7.95817 6.35001 7.6915 6.55834 7.48317L7.18334 6.83317C7.35001 6.6665 7.47501 6.50817 7.55834 6.3665C7.62501 6.25817 7.65001 6.1665 7.65001 6.08317C7.65001 6.0165 7.62501 5.9165 7.58334 5.8165C7.52501 5.68317 7.43334 5.53317 7.31667 5.37484L5.38334 2.6415C5.30001 2.52484 5.20001 2.4415 5.07501 2.38317C4.94167 2.32484 4.80001 2.2915 4.65834 2.2915ZM11.625 12.5082L11.4917 13.0748L11.7167 12.4915C11.675 12.4832 11.6417 12.4915 11.625 12.5082Z" fill="#1A2A57"/>
</svg>
