<svg width="20" height="20" viewBox="0 0 20 20" fill="none" xmlns="http://www.w3.org/2000/svg">
<path d="M10 18.9669C9.09171 18.9669 8.19171 18.7002 7.48337 18.1752L3.90004 15.5002C2.95004 14.7919 2.20837 13.3169 2.20837 12.1335V5.93353C2.20837 4.6502 3.15004 3.28353 4.35837 2.83353L8.51671 1.2752C9.34171 0.966862 10.6417 0.966862 11.4667 1.2752L15.6334 2.83353C16.8417 3.28353 17.7834 4.6502 17.7834 5.93353V12.1252C17.7834 13.3085 17.0417 14.7835 16.0917 15.4919L12.5084 18.1669C11.8084 18.7002 10.9084 18.9669 10 18.9669ZM8.95837 2.4502L4.80004 4.00853C4.08337 4.2752 3.45837 5.1752 3.45837 5.94186V12.1335C3.45837 12.9252 4.01671 14.0335 4.64171 14.5002L8.22504 17.1752C9.18337 17.8919 10.8084 17.8919 11.7667 17.1752L15.35 14.5002C15.9834 14.0252 16.5334 12.9169 16.5334 12.1335V5.93353C16.5334 5.1752 15.9084 4.2752 15.1917 4.0002L11.0334 2.44186C10.4834 2.24186 9.51671 2.24186 8.95837 2.4502Z" fill="#616161"/>
<path d="M10 11.0413C8.73337 11.0413 7.70837 10.0163 7.70837 8.74967C7.70837 7.48301 8.73337 6.45801 10 6.45801C11.2667 6.45801 12.2917 7.48301 12.2917 8.74967C12.2917 10.0163 11.2667 11.0413 10 11.0413ZM10 7.70801C9.42504 7.70801 8.95837 8.17467 8.95837 8.74967C8.95837 9.32467 9.42504 9.79134 10 9.79134C10.575 9.79134 11.0417 9.32467 11.0417 8.74967C11.0417 8.17467 10.575 7.70801 10 7.70801Z" fill="#616161"/>
<path d="M10 13.542C9.65833 13.542 9.375 13.2587 9.375 12.917V10.417C9.375 10.0753 9.65833 9.79199 10 9.79199C10.3417 9.79199 10.625 10.0753 10.625 10.417V12.917C10.625 13.2587 10.3417 13.542 10 13.542Z" fill="#616161"/>
</svg>
