<svg width="16" height="16" viewBox="0 0 16 16" fill="none" xmlns="http://www.w3.org/2000/svg">
<path d="M15.8932 7.70152C14.439 5.92979 11.3602 3.86218 8.00001 3.86218C4.62774 3.86218 1.54881 5.94384 0.10677 7.70152C0.0377319 7.78567 0 7.89116 0 8C0 8.10885 0.0377319 8.21433 0.10677 8.29848C1.59546 10.1131 4.68148 12.1379 8.00001 12.1379C11.4365 12.1379 14.5022 9.99332 15.8932 8.29851C15.9623 8.21436 16 8.10887 16 8.00002C16 7.89116 15.9623 7.78568 15.8932 7.70152ZM11.1967 8C11.1967 9.76264 9.76264 11.1967 7.99998 11.1967C6.23728 11.1967 4.8033 9.76254 4.8033 8C4.8033 6.23737 6.23731 4.80333 7.99998 4.80333C9.7628 4.80336 11.1967 6.23756 11.1967 8ZM1.10627 8.00013C1.63593 7.44963 2.91304 6.26159 4.70583 5.49908C3.58075 6.97741 3.58031 9.02137 4.7053 10.5002C3.34219 9.92251 2.07593 9.00976 1.10627 8.00013ZM11.2942 10.5009C12.4193 9.02256 12.4197 6.97864 11.2947 5.49977C12.6578 6.07749 13.9241 6.99028 14.8937 7.99985C14.3641 8.5504 13.087 9.73839 11.2942 10.5009Z" fill="#D9504C"/>
<path d="M6.40021 8C6.40021 8.88226 7.11795 9.6 8.00021 9.6C8.88244 9.6 9.60021 8.88226 9.60021 8C9.60021 7.11774 8.88244 6.4 8.00021 6.4C7.11795 6.4 6.40021 7.11774 6.40021 8ZM8.65904 8C8.65904 8.36329 8.36347 8.65882 8.00021 8.65882C7.63692 8.65882 7.34139 8.36329 7.34139 8C7.34139 7.63671 7.63692 7.34118 8.00021 7.34118C8.36347 7.34118 8.65904 7.63671 8.65904 8ZM8.00021 2.03922C8.2601 2.03922 8.4708 1.82852 8.4708 1.56863V0.470588C8.4708 0.210698 8.2601 0 8.00021 0C7.74032 0 7.52962 0.210698 7.52962 0.470588V1.56863C7.52962 1.82852 7.74032 2.03922 8.00021 2.03922ZM10.8081 2.66861C11.0337 2.7973 11.3212 2.71884 11.45 2.49296L12.0762 1.39492C12.205 1.16916 12.1264 0.881788 11.9006 0.753004C11.6748 0.624251 11.3875 0.702839 11.2587 0.928659L10.6324 2.0267C10.5037 2.25242 10.5823 2.53983 10.8081 2.66861ZM4.55045 2.49296C4.67921 2.71871 4.96658 2.79733 5.19237 2.66858C5.41813 2.53983 5.49674 2.25242 5.36799 2.02667L4.74173 0.928627C4.61298 0.702871 4.32554 0.624251 4.09982 0.753004C3.87406 0.881757 3.79544 1.16916 3.9242 1.39492L4.55045 2.49296ZM8.00021 13.9608C7.74032 13.9608 7.52962 14.1715 7.52962 14.4314V15.5294C7.52962 15.7893 7.74032 16 8.00021 16C8.2601 16 8.4708 15.7893 8.4708 15.5294V14.4314C8.4708 14.1715 8.2601 13.9608 8.00021 13.9608ZM5.19237 13.3314C4.96661 13.2027 4.67924 13.2813 4.55045 13.507L3.9242 14.6051C3.79544 14.8308 3.87406 15.1182 4.09982 15.247C4.32561 15.3757 4.61298 15.2971 4.74173 15.0714L5.36799 13.9733C5.49678 13.7476 5.41813 13.4602 5.19237 13.3314ZM11.45 13.507C11.3212 13.2813 11.0337 13.2027 10.8081 13.3314C10.5823 13.4601 10.5037 13.7475 10.6324 13.9733L11.2587 15.0713C11.3874 15.2971 11.6748 15.3757 11.9006 15.247C12.1264 15.1182 12.205 14.8308 12.0762 14.6051L11.45 13.507Z" fill="#D9504C"/>
</svg>
