<svg width="20" height="20" viewBox="0 0 20 20" fill="none" xmlns="http://www.w3.org/2000/svg">
<path d="M5.83329 8.95866H4.16663C2.14996 8.95866 1.04163 7.85033 1.04163 5.83366V4.16699C1.04163 2.15033 2.14996 1.04199 4.16663 1.04199H5.83329C7.84996 1.04199 8.95829 2.15033 8.95829 4.16699V5.83366C8.95829 7.85033 7.84996 8.95866 5.83329 8.95866ZM4.16663 2.29199C2.84996 2.29199 2.29163 2.85033 2.29163 4.16699V5.83366C2.29163 7.15033 2.84996 7.70866 4.16663 7.70866H5.83329C7.14996 7.70866 7.70829 7.15033 7.70829 5.83366V4.16699C7.70829 2.85033 7.14996 2.29199 5.83329 2.29199H4.16663Z" fill="#616161"/>
<path d="M15.8333 8.95866H14.1666C12.15 8.95866 11.0416 7.85033 11.0416 5.83366V4.16699C11.0416 2.15033 12.15 1.04199 14.1666 1.04199H15.8333C17.85 1.04199 18.9583 2.15033 18.9583 4.16699V5.83366C18.9583 7.85033 17.85 8.95866 15.8333 8.95866ZM14.1666 2.29199C12.85 2.29199 12.2916 2.85033 12.2916 4.16699V5.83366C12.2916 7.15033 12.85 7.70866 14.1666 7.70866H15.8333C17.15 7.70866 17.7083 7.15033 17.7083 5.83366V4.16699C17.7083 2.85033 17.15 2.29199 15.8333 2.29199H14.1666Z" fill="#616161"/>
<path d="M15.8333 18.9587H14.1666C12.15 18.9587 11.0416 17.8503 11.0416 15.8337V14.167C11.0416 12.1503 12.15 11.042 14.1666 11.042H15.8333C17.85 11.042 18.9583 12.1503 18.9583 14.167V15.8337C18.9583 17.8503 17.85 18.9587 15.8333 18.9587ZM14.1666 12.292C12.85 12.292 12.2916 12.8503 12.2916 14.167V15.8337C12.2916 17.1503 12.85 17.7087 14.1666 17.7087H15.8333C17.15 17.7087 17.7083 17.1503 17.7083 15.8337V14.167C17.7083 12.8503 17.15 12.292 15.8333 12.292H14.1666Z" fill="#616161"/>
<path d="M5.83329 18.9587H4.16663C2.14996 18.9587 1.04163 17.8503 1.04163 15.8337V14.167C1.04163 12.1503 2.14996 11.042 4.16663 11.042H5.83329C7.84996 11.042 8.95829 12.1503 8.95829 14.167V15.8337C8.95829 17.8503 7.84996 18.9587 5.83329 18.9587ZM4.16663 12.292C2.84996 12.292 2.29163 12.8503 2.29163 14.167V15.8337C2.29163 17.1503 2.84996 17.7087 4.16663 17.7087H5.83329C7.14996 17.7087 7.70829 17.1503 7.70829 15.8337V14.167C7.70829 12.8503 7.14996 12.292 5.83329 12.292H4.16663Z" fill="#616161"/>
</svg>
