<svg width="25" height="24" viewBox="0 0 25 24" fill="none" xmlns="http://www.w3.org/2000/svg">
<path d="M7.615 2H5.715C3.525 2 2.375 3.15 2.375 5.33V7.23C2.375 9.41 3.525 10.56 5.705 10.56H7.605C9.785 10.56 10.935 9.41 10.935 7.23V5.33C10.945 3.15 9.795 2 7.615 2Z" fill="#1A2A57"/>
<path d="M19.0449 2H17.1449C14.9649 2 13.8149 3.15 13.8149 5.33V7.23C13.8149 9.41 14.9649 10.56 17.1449 10.56H19.0449C21.2249 10.56 22.3749 9.41 22.3749 7.23V5.33C22.3749 3.15 21.2249 2 19.0449 2Z" fill="#1A2A57"/>
<path d="M19.0449 13.4302H17.1449C14.9649 13.4302 13.8149 14.5802 13.8149 16.7602V18.6602C13.8149 20.8402 14.9649 21.9902 17.1449 21.9902H19.0449C21.2249 21.9902 22.3749 20.8402 22.3749 18.6602V16.7602C22.3749 14.5802 21.2249 13.4302 19.0449 13.4302Z" fill="#1A2A57"/>
<path d="M7.615 13.4302H5.715C3.525 13.4302 2.375 14.5802 2.375 16.7602V18.6602C2.375 20.8502 3.525 22.0002 5.705 22.0002H7.605C9.785 22.0002 10.935 20.8502 10.935 18.6702V16.7702C10.945 14.5802 9.795 13.4302 7.615 13.4302Z" fill="#1A2A57"/>
</svg>
