<svg width="25" height="24" viewBox="0 0 25 24" fill="none" xmlns="http://www.w3.org/2000/svg">
<path d="M7.375 10.75H5.375C2.955 10.75 1.625 9.42 1.625 7V5C1.625 2.58 2.955 1.25 5.375 1.25H7.375C9.795 1.25 11.125 2.58 11.125 5V7C11.125 9.42 9.795 10.75 7.375 10.75ZM5.375 2.75C3.795 2.75 3.125 3.42 3.125 5V7C3.125 8.58 3.795 9.25 5.375 9.25H7.375C8.955 9.25 9.625 8.58 9.625 7V5C9.625 3.42 8.955 2.75 7.375 2.75H5.375Z" fill="#959595"/>
<path d="M19.375 10.75H17.375C14.955 10.75 13.625 9.42 13.625 7V5C13.625 2.58 14.955 1.25 17.375 1.25H19.375C21.795 1.25 23.125 2.58 23.125 5V7C23.125 9.42 21.795 10.75 19.375 10.75ZM17.375 2.75C15.795 2.75 15.125 3.42 15.125 5V7C15.125 8.58 15.795 9.25 17.375 9.25H19.375C20.955 9.25 21.625 8.58 21.625 7V5C21.625 3.42 20.955 2.75 19.375 2.75H17.375Z" fill="#959595"/>
<path d="M19.375 22.75H17.375C14.955 22.75 13.625 21.42 13.625 19V17C13.625 14.58 14.955 13.25 17.375 13.25H19.375C21.795 13.25 23.125 14.58 23.125 17V19C23.125 21.42 21.795 22.75 19.375 22.75ZM17.375 14.75C15.795 14.75 15.125 15.42 15.125 17V19C15.125 20.58 15.795 21.25 17.375 21.25H19.375C20.955 21.25 21.625 20.58 21.625 19V17C21.625 15.42 20.955 14.75 19.375 14.75H17.375Z" fill="#959595"/>
<path d="M7.375 22.75H5.375C2.955 22.75 1.625 21.42 1.625 19V17C1.625 14.58 2.955 13.25 5.375 13.25H7.375C9.795 13.25 11.125 14.58 11.125 17V19C11.125 21.42 9.795 22.75 7.375 22.75ZM5.375 14.75C3.795 14.75 3.125 15.42 3.125 17V19C3.125 20.58 3.795 21.25 5.375 21.25H7.375C8.955 21.25 9.625 20.58 9.625 19V17C9.625 15.42 8.955 14.75 7.375 14.75H5.375Z" fill="#959595"/>
</svg>
