<svg width="20" height="20" viewBox="0 0 20 20" fill="none" xmlns="http://www.w3.org/2000/svg">
<path d="M17.1834 10.8916C16.8667 10.8916 16.6 10.65 16.5584 10.3333C16.3584 8.44996 15.3417 6.74163 13.775 5.6583C13.4917 5.4583 13.425 5.07496 13.6167 4.79163C13.8167 4.5083 14.2084 4.44163 14.4834 4.6333C16.35 5.92496 17.55 7.9583 17.7917 10.2C17.825 10.5416 17.5834 10.85 17.2334 10.8916C17.225 10.8916 17.2 10.8916 17.1834 10.8916Z" fill="#616161"/>
<path d="M2.90838 10.9337C2.88338 10.9337 2.86671 10.9337 2.84171 10.9337C2.50004 10.892 2.25004 10.5837 2.28338 10.242C2.50838 8.00038 3.70004 5.97538 5.54171 4.66704C5.82504 4.46704 6.21671 4.53371 6.41671 4.81704C6.61671 5.10038 6.55004 5.49204 6.26671 5.69204C4.71671 6.78371 3.71671 8.49204 3.52504 10.3754C3.50004 10.692 3.22504 10.9337 2.90838 10.9337Z" fill="#616161"/>
<path d="M10.0501 18.842C8.81672 18.842 7.64172 18.5586 6.54172 18.0086C6.23339 17.8503 6.10839 17.4753 6.26672 17.167C6.42505 16.8586 6.80005 16.7336 7.10839 16.892C8.90839 17.8003 11.0751 17.817 12.8917 16.942C13.2001 16.792 13.5751 16.9253 13.7251 17.2336C13.8751 17.542 13.7417 17.917 13.4334 18.067C12.3667 18.5836 11.2334 18.842 10.0501 18.842Z" fill="#616161"/>
<path d="M10.0499 7.03372C8.42494 7.03372 7.10828 5.71706 7.10828 4.09206C7.10828 2.46706 8.42494 1.15039 10.0499 1.15039C11.6749 1.15039 12.9916 2.46706 12.9916 4.09206C12.9916 5.71706 11.6666 7.03372 10.0499 7.03372ZM10.0499 2.40872C9.11661 2.40872 8.35828 3.16706 8.35828 4.10039C8.35828 5.03372 9.11661 5.79206 10.0499 5.79206C10.9833 5.79206 11.7416 5.03372 11.7416 4.10039C11.7416 3.16706 10.9749 2.40872 10.0499 2.40872Z" fill="#616161"/>
<path d="M4.02504 17.2251C2.40004 17.2251 1.08337 15.9085 1.08337 14.2835C1.08337 12.6668 2.40004 11.3418 4.02504 11.3418C5.65004 11.3418 6.96671 12.6585 6.96671 14.2835C6.96671 15.9001 5.65004 17.2251 4.02504 17.2251ZM4.02504 12.5918C3.09171 12.5918 2.33337 13.3501 2.33337 14.2835C2.33337 15.2168 3.09171 15.9751 4.02504 15.9751C4.95837 15.9751 5.71671 15.2168 5.71671 14.2835C5.71671 13.3501 4.95837 12.5918 4.02504 12.5918Z" fill="#616161"/>
<path d="M15.975 17.2251C14.35 17.2251 13.0333 15.9085 13.0333 14.2835C13.0333 12.6668 14.35 11.3418 15.975 11.3418C17.6 11.3418 18.9167 12.6585 18.9167 14.2835C18.9083 15.9001 17.5917 17.2251 15.975 17.2251ZM15.975 12.5918C15.0417 12.5918 14.2833 13.3501 14.2833 14.2835C14.2833 15.2168 15.0417 15.9751 15.975 15.9751C16.9083 15.9751 17.6667 15.2168 17.6667 14.2835C17.6583 13.3501 16.9083 12.5918 15.975 12.5918Z" fill="#616161"/>
</svg>
