<svg width="16" height="16" viewBox="0 0 16 16" fill="none" xmlns="http://www.w3.org/2000/svg">
<path d="M2.39478 5.78223C2.45912 5.76651 2.52764 5.75165 2.60083 5.73926L2.60181 5.74023C2.53143 5.75174 2.46227 5.76577 2.39478 5.78223ZM2.39478 5.78223C2.34177 5.79517 2.29175 5.80942 2.24438 5.82422C2.29343 5.8088 2.3436 5.7947 2.39478 5.78223ZM11.9963 14.585C11.9308 14.6002 11.8574 14.6133 11.7737 14.6133C11.7064 14.6133 11.6296 14.6067 11.5432 14.5918C11.687 14.6151 11.8449 14.6191 11.9963 14.585ZM4.84204 14.4824C4.56814 14.5871 4.35519 14.6161 4.19653 14.6113C4.16751 14.6105 4.14013 14.6045 4.11353 14.6016C4.23746 14.6152 4.36226 14.6068 4.47583 14.5869C4.59073 14.5668 4.71246 14.5311 4.84204 14.4824ZM1.45435 7.31445C1.5557 7.53044 1.71544 7.73789 1.90649 7.92578V7.92676L3.55981 9.58008C3.68838 9.70864 3.80298 9.90872 3.87036 10.1436C3.9377 10.3783 3.9464 10.6094 3.90552 10.7881L3.43286 12.833C3.34701 13.2025 3.32586 13.5188 3.36157 13.7783C3.39479 14.0193 3.49066 14.2941 3.7229 14.46C3.8343 14.5395 3.95948 14.5812 4.08618 14.5986C3.95954 14.5814 3.861 14.5462 3.78735 14.5059L3.7063 14.4551C3.61918 14.3897 3.4955 14.2651 3.41626 14.0391C3.33518 13.8075 3.28722 13.4288 3.427 12.834V12.833L3.89966 10.7852C3.95297 10.5618 3.91926 10.3239 3.86743 10.1445C3.81434 9.96091 3.71509 9.74141 3.55396 9.58008L1.90063 7.92676C1.59743 7.62355 1.45617 7.35855 1.38989 7.15234C1.40839 7.20974 1.43067 7.26399 1.45435 7.31445ZM11.5022 14.584C11.4651 14.5766 11.4265 14.5675 11.386 14.5566C11.4256 14.5669 11.4641 14.5768 11.5022 14.584ZM12.3635 14.3936C12.3388 14.4177 12.3156 14.438 12.2942 14.4541C12.2342 14.4973 12.1498 14.5423 12.0383 14.5742C12.1243 14.5504 12.2082 14.5144 12.2844 14.46C12.313 14.4395 12.339 14.417 12.3635 14.3936ZM5.00317 14.415C4.98673 14.4225 4.97041 14.4295 4.95435 14.4365C4.97055 14.4296 4.98676 14.4224 5.00317 14.415ZM12.5208 14.1777C12.516 14.1869 12.512 14.1963 12.5071 14.2051C12.5121 14.1962 12.5161 14.1868 12.5208 14.1777ZM12.6418 13.7783C12.6342 13.8338 12.624 13.8844 12.6125 13.9307C12.6253 13.8788 12.6351 13.8276 12.6418 13.7783ZM12.6575 13.5713C12.6558 13.6402 12.6503 13.7034 12.6428 13.7617C12.6504 13.7012 12.656 13.6378 12.6575 13.5713ZM12.6282 13.1406C12.6364 13.1982 12.6431 13.253 12.6477 13.3057C12.6431 13.2521 12.6361 13.1972 12.6282 13.1406ZM12.5872 12.9043C12.5999 12.9645 12.6104 13.0224 12.6194 13.0781C12.6104 13.0216 12.5995 12.9637 12.5872 12.9043ZM7.4729 12.9932C7.48064 12.9899 7.48841 12.9865 7.49634 12.9834C7.48845 12.9864 7.48073 12.9899 7.4729 12.9932ZM8.00024 12.8936C8.10754 12.8936 8.21173 12.9067 8.30981 12.9277C8.20238 12.906 8.09641 12.8965 8.00122 12.8965C7.85843 12.8965 7.68875 12.917 7.52759 12.9736C7.6654 12.9239 7.82834 12.8936 8.00024 12.8936ZM8.3313 12.9316C8.36379 12.9391 8.3952 12.9485 8.42603 12.958C8.39437 12.9485 8.3631 12.9386 8.3313 12.9316ZM1.34595 6.96289C1.35384 7.01777 1.36604 7.07096 1.3811 7.12207C1.37376 7.09703 1.36385 7.07397 1.35864 7.05078C1.35192 7.0208 1.34986 6.99101 1.34595 6.96289ZM1.41626 6.45605L1.37915 6.54883C1.33319 6.68689 1.32669 6.82419 1.34399 6.95312C1.32163 6.78017 1.34627 6.64444 1.37524 6.55566C1.38494 6.52599 1.39909 6.49249 1.41626 6.45605ZM1.50513 6.30762C1.48056 6.34145 1.45796 6.3771 1.43774 6.41504C1.45616 6.38066 1.47828 6.34473 1.50513 6.30762ZM10.7258 5.13086C10.8653 5.23386 11.0614 5.34491 11.2708 5.37988H11.2717L13.3977 5.7334C13.8948 5.8168 14.1826 5.98257 14.3499 6.13184C14.4496 6.22081 14.514 6.31304 14.5579 6.39355C14.4522 6.20747 14.2885 6.07339 14.1282 5.98145C13.9201 5.86221 13.6684 5.78272 13.3997 5.73926H13.3987L11.2756 5.38672H11.2766C11.1129 5.35908 10.9167 5.27272 10.7327 5.13672C10.7215 5.12846 10.7113 5.1188 10.7004 5.11035C10.7092 5.11708 10.7172 5.1245 10.7258 5.13086ZM1.52954 6.27344C1.54165 6.25812 1.55482 6.243 1.5686 6.22754C1.55526 6.24243 1.54211 6.25762 1.52954 6.27344ZM1.68774 6.11328C1.6661 6.13124 1.64489 6.1501 1.62427 6.16992C1.63463 6.15992 1.64436 6.14862 1.65552 6.13867C1.66546 6.1298 1.67695 6.12224 1.68774 6.11328ZM1.87915 5.98145C1.83559 6.00641 1.79216 6.03504 1.74927 6.06641C1.82668 6.00993 1.92098 5.95183 2.03931 5.90039C1.98348 5.92483 1.93017 5.95221 1.87915 5.98145ZM2.05005 5.89551C2.09261 5.87733 2.13823 5.86039 2.18677 5.84375C2.14007 5.85987 2.09421 5.87651 2.05005 5.89551ZM10.6116 5.03809C10.5972 5.02516 10.5841 5.01121 10.5706 4.99805C10.5846 5.01136 10.5974 5.02559 10.6116 5.03809ZM10.4934 4.91992C10.4886 4.91453 10.4844 4.90873 10.4797 4.90332C10.4845 4.90872 10.4886 4.91461 10.4934 4.91992ZM8.00024 1.37988C8.10989 1.37992 8.28336 1.40311 8.47876 1.52148C8.58482 1.58576 8.70577 1.68473 8.83228 1.83594C8.79254 1.78927 8.7519 1.74474 8.70923 1.7041C8.56124 1.56318 8.35665 1.42572 8.10864 1.39355L8.00024 1.38672C7.70286 1.38672 7.45943 1.54386 7.29028 1.70605C7.11601 1.87328 6.96744 2.09455 6.84692 2.3418L6.1897 3.64551L6.84692 2.33691L6.8479 2.33594C7.07906 1.87072 7.32725 1.6393 7.52173 1.52148C7.71719 1.40314 7.89065 1.37988 8.00024 1.37988ZM8.84106 1.84668C8.86731 1.87851 8.89366 1.9126 8.92017 1.94922C8.8942 1.91402 8.86848 1.87935 8.84106 1.84668ZM12.6526 13.374C12.6568 13.4425 12.6588 13.5064 12.6575 13.5664C12.6587 13.5048 12.6566 13.4407 12.6526 13.374Z" fill="#FFD166" stroke="#FFD166"/>
</svg>
