<svg width="18" height="18" viewBox="0 0 18 18" fill="none" xmlns="http://www.w3.org/2000/svg">
<path d="M4.305 12C4.3875 11.6325 4.2375 11.1075 3.975 10.845L2.1525 9.0225C1.5825 8.4525 1.3575 7.845 1.5225 7.32C1.695 6.795 2.2275 6.435 3.0225 6.3L5.3625 5.91C5.7 5.85 6.1125 5.55 6.27 5.2425L7.56 2.655C7.935 1.9125 8.445 1.5 9 1.5C9.555 1.5 10.065 1.9125 10.44 2.655L11.73 5.2425C11.8275 5.4375 12.03 5.625 12.2475 5.7525L4.17 13.83C4.065 13.935 3.885 13.8375 3.915 13.6875L4.305 12Z" fill="#FDB50E"/>
<path d="M14.025 10.8449C13.755 11.1149 13.605 11.6324 13.695 11.9999L14.2125 14.2574C14.43 15.1949 14.295 15.8999 13.83 16.2374C13.6425 16.3724 13.4175 16.4399 13.155 16.4399C12.7725 16.4399 12.3225 16.2974 11.8275 16.0049L9.63001 14.6999C9.28501 14.4974 8.71501 14.4974 8.37001 14.6999L6.17251 16.0049C5.34001 16.4924 4.62751 16.5749 4.17001 16.2374C3.99751 16.1099 3.87001 15.9374 3.78751 15.7124L12.9075 6.59242C13.2525 6.24742 13.74 6.08992 14.2125 6.17242L14.97 6.29992C15.765 6.43492 16.2975 6.79492 16.47 7.31992C16.635 7.84492 16.41 8.45242 15.84 9.02242L14.025 10.8449Z" fill="#FDB50E"/>
</svg>
