<svg width="40" height="40" viewBox="0 0 40 40" fill="none" xmlns="http://www.w3.org/2000/svg">
<path d="M36.62 36.3668C36.5134 36.6135 36.2734 36.7735 36 36.7735H28.5734C28.4856 36.7743 28.3985 36.7577 28.3172 36.7245C28.236 36.6913 28.1621 36.6422 28.1 36.5801L21.04 29.5135C18.7867 30.1201 16.4 29.4868 14.7334 27.8201C13.0934 26.1801 12.4534 23.8535 13.02 21.6001C13.0734 21.3668 13.2534 21.1801 13.4867 21.1201C13.72 21.0535 13.9667 21.1201 14.1334 21.2935L17.3667 24.5268L20.1267 23.9401L20.7067 21.1868L17.4734 17.9468C17.3067 17.7801 17.24 17.5335 17.3067 17.3001C17.3734 17.0668 17.5534 16.8868 17.7867 16.8335C20.04 16.2735 22.36 16.9201 24 18.5535C24.8146 19.3597 25.4006 20.3678 25.6981 21.4746C25.9956 22.5815 25.994 23.7475 25.6934 24.8535L36.4734 35.6335C36.6667 35.8201 36.72 36.1135 36.62 36.3668ZM8.62671 5.3068C8.62671 5.20013 8.64671 5.10013 8.66004 4.99346L4.06004 4.9668H4.05337C3.68671 4.9668 3.38671 5.2668 3.38671 5.63346L3.33337 14.1068C3.33337 14.4735 3.63337 14.7735 4.00004 14.7801L8.60004 14.8068C8.59337 14.7001 8.56671 14.6001 8.57337 14.4935L8.62671 5.3068Z" fill="#1A2A57"/>
<path d="M16.42 5.36021L16.36 14.5402C16.3565 15.0955 16.1339 15.6269 15.7406 16.0189C15.3474 16.4109 14.8153 16.6318 14.26 16.6335H14.2467L11.9933 16.6202C11.4357 16.6153 10.9027 16.3893 10.5115 15.9918C10.1203 15.5943 9.90276 15.0579 9.90667 14.5002L9.96 5.32021C9.96667 4.76021 10.1867 4.23355 10.5867 3.84021C10.9867 3.44688 11.4933 3.22688 12.0733 3.23355L14.3267 3.24688C15.4867 3.25355 16.4267 4.20021 16.42 5.36021Z" fill="#FFD166"/>
<path d="M36.4134 5.3668C36.3516 5.30381 36.278 5.2537 36.1967 5.21937C36.1155 5.18504 36.0282 5.16717 35.94 5.1668L31.34 5.14014C31.3467 5.24014 31.3667 5.3468 31.3667 5.4468L31.3134 14.6268C31.3134 14.7335 31.2867 14.8335 31.28 14.9401L35.8867 14.9668C36.2534 14.9668 36.5534 14.6735 36.5534 14.3068L36.6067 5.84014C36.6067 5.66014 36.5334 5.49347 36.4134 5.3668Z" fill="#1A2A57"/>
<path d="M24.9134 5.38704C24.9134 5.28038 24.9334 5.18038 24.9467 5.08038L15.0534 5.05371C15.06 5.16038 15.0867 5.26038 15.08 5.36704L15.02 14.547C15.02 14.6537 15 14.7537 14.9867 14.8604L24.8734 14.887C24.8667 14.787 24.8467 14.687 24.8467 14.5804L24.9134 5.38704Z" fill="#FFD166"/>
<path d="M30.0334 5.44029L29.98 14.6203C29.9776 15.1759 29.7553 15.7079 29.3618 16.1001C28.9684 16.4924 28.4356 16.7129 27.88 16.7136H27.8667L25.6134 16.7003C25.0557 16.6971 24.5221 16.4728 24.1296 16.0766C23.7371 15.6804 23.5179 15.1446 23.52 14.587L23.58 5.40029C23.58 4.84029 23.8 4.31362 24.2 3.92029C24.6 3.52696 25.1267 3.30696 25.6934 3.31362L27.9467 3.32696C28.2225 3.3287 28.4952 3.38475 28.7493 3.4919C29.0034 3.59905 29.234 3.75521 29.4277 3.95145C29.6215 4.14769 29.7747 4.38018 29.8786 4.63563C29.9825 4.89109 30.0351 5.16451 30.0334 5.44029Z" fill="#FFD166"/>
<path d="M9.42672 19.4667C9.42672 20.0667 9.18005 20.6 8.78672 20.9934C8.39338 21.3867 7.85338 21.6267 7.25338 21.6267H7.24005C6.66475 21.6216 6.11496 21.3885 5.71128 20.9786C5.30759 20.5686 5.08299 20.0153 5.08672 19.44C5.08672 18.48 6.34005 16.5534 6.72005 15.9867C6.84672 15.8 7.05338 15.6934 7.27338 15.6934H7.28005C7.50005 15.6934 7.70672 15.8067 7.83338 15.9934C8.20672 16.5667 9.43338 18.5067 9.42672 19.4667Z" fill="#1A2A57"/>
</svg>
