<svg width="19" height="23" viewBox="0 0 19 23" fill="none" xmlns="http://www.w3.org/2000/svg">
<path d="M18.3769 7.58897V11.012C17.7789 10.9535 17.0018 10.8176 16.1422 10.5026C15.0197 10.0911 14.1842 9.52845 13.637 9.09279V16.0112L13.623 15.9896C13.6319 16.1268 13.637 16.2665 13.637 16.4075C13.637 19.8432 10.8422 22.64 7.40629 22.64C3.97034 22.64 1.17561 19.8432 1.17561 16.4075C1.17561 12.9718 3.97034 10.1737 7.40629 10.1737C7.74277 10.1737 8.07291 10.2003 8.39543 10.2524V13.6259C8.08561 13.5154 7.75293 13.4557 7.40629 13.4557C5.77974 13.4557 4.45539 14.7792 4.45539 16.4075C4.45539 18.0358 5.77974 19.3592 7.40629 19.3592C9.03284 19.3592 10.3572 18.0345 10.3572 16.4075C10.3572 16.3465 10.3559 16.2855 10.3521 16.2246V2.78027H13.7716C13.7843 3.06986 13.7957 3.36199 13.8084 3.65158C13.8312 4.22186 14.0344 4.7693 14.3887 5.21765C14.8039 5.74476 15.4172 6.35695 16.278 6.84595C17.0843 7.30192 17.8411 7.49879 18.3769 7.59151V7.58897Z" fill="#FF004F"/>
<path d="M17.2013 4.80997V8.2317C16.6033 8.17327 15.8262 8.03736 14.9666 7.72237C13.8441 7.31085 13.0086 6.74819 12.4613 6.31254V13.2309L12.4474 13.2093C12.4563 13.3465 12.4613 13.4862 12.4613 13.6272C12.4613 17.0629 9.66663 19.8597 6.23068 19.8597C2.79473 19.8597 0 17.0629 0 13.6272C0 10.1915 2.79473 7.39341 6.23068 7.39341C6.56716 7.39341 6.89729 7.42009 7.21981 7.47216V10.8456C6.90999 10.7351 6.57732 10.6754 6.23068 10.6754C4.60412 10.6754 3.27976 11.9989 3.27976 13.6272C3.27976 15.2555 4.60412 16.579 6.23068 16.579C7.85723 16.579 9.18158 15.2542 9.18158 13.6272C9.18158 13.5662 9.1803 13.5052 9.17649 13.4443V0H12.5959C12.6086 0.289589 12.6201 0.581716 12.6328 0.871305C12.6556 1.44159 12.8588 1.98903 13.213 2.43738C13.6283 2.96448 14.2415 3.57668 15.1024 4.06567C15.9087 4.52165 16.6655 4.71852 17.2013 4.81124V4.80997Z" fill="#00F7EF"/>
<path d="M17.9491 6.30625V9.72924C17.351 9.67081 16.5739 9.53491 15.7143 9.21992C14.5918 8.80839 13.7564 8.24573 13.2091 7.81008V14.7285L13.1951 14.7069C13.204 14.844 13.2091 14.9838 13.2091 15.1247C13.2091 18.5604 10.4144 21.3572 6.97842 21.3572C3.54247 21.3572 0.747742 18.5604 0.747742 15.1247C0.747742 11.6891 3.54247 8.89096 6.97842 8.89096C7.3149 8.89096 7.64504 8.91763 7.96756 8.96971V12.3432C7.65774 12.2327 7.32506 12.173 6.97842 12.173C5.35186 12.173 4.02751 13.4964 4.02751 15.1247C4.02751 16.753 5.35186 18.0765 6.97842 18.0765C8.60497 18.0765 9.92932 16.7518 9.92932 15.1247C9.92932 15.0638 9.92805 15.0028 9.92424 14.9418V1.49756H13.3437C13.3564 1.78715 13.3678 2.07927 13.3805 2.36886C13.4034 2.93915 13.6065 3.48657 13.9608 3.93492C14.376 4.46203 14.9893 5.07423 15.8502 5.56323C16.6565 6.01921 17.4132 6.21608 17.9491 6.3088V6.30625Z" fill="black"/>
</svg>
