<svg width="32" height="32" viewBox="0 0 32 32" fill="none" xmlns="http://www.w3.org/2000/svg">
<path d="M12 14.3333C9.97337 14.3333 8.33337 12.6933 8.33337 10.6667C8.33337 8.64 9.97337 7 12 7C14.0267 7 15.6667 8.64 15.6667 10.6667C15.6667 12.6933 14.0267 14.3333 12 14.3333ZM12 9C11.08 9 10.3334 9.74667 10.3334 10.6667C10.3334 11.5867 11.08 12.3333 12 12.3333C12.92 12.3333 13.6667 11.5867 13.6667 10.6667C13.6667 9.74667 12.92 9 12 9Z" fill="#1A2A57"/>
<path d="M20 30.3337H12C4.75996 30.3337 1.66663 27.2403 1.66663 20.0003V12.0003C1.66663 4.76033 4.75996 1.66699 12 1.66699H17.3333C17.88 1.66699 18.3333 2.12033 18.3333 2.66699C18.3333 3.21366 17.88 3.66699 17.3333 3.66699H12C5.85329 3.66699 3.66663 5.85366 3.66663 12.0003V20.0003C3.66663 26.147 5.85329 28.3337 12 28.3337H20C26.1466 28.3337 28.3333 26.147 28.3333 20.0003V13.3337C28.3333 12.787 28.7866 12.3337 29.3333 12.3337C29.88 12.3337 30.3333 12.787 30.3333 13.3337V20.0003C30.3333 27.2403 27.24 30.3337 20 30.3337Z" fill="#818181"/>
<path d="M24 11.6669C23.4533 11.6669 23 11.2136 23 10.6669V2.66691C23 2.26691 23.24 1.89358 23.6133 1.74691C23.9867 1.60024 24.4133 1.68024 24.7067 1.96024L27.3733 4.62691C27.76 5.01358 27.76 5.65358 27.3733 6.04024C26.9867 6.42691 26.3467 6.42691 25.96 6.04024L25 5.08024V10.6669C25 11.2136 24.5467 11.6669 24 11.6669Z" fill="#FFCA29"/>
<path d="M21.3333 6.33326C21.08 6.33326 20.8267 6.23992 20.6267 6.03992C20.24 5.65326 20.24 5.01326 20.6267 4.62659L23.2933 1.95992C23.68 1.57326 24.32 1.57326 24.7067 1.95992C25.0933 2.34659 25.0933 2.98659 24.7067 3.37326L22.04 6.03992C21.84 6.23992 21.5867 6.33326 21.3333 6.33326Z" fill="#FFCA29"/>
<path d="M3.55994 26.2671C3.23994 26.2671 2.91994 26.1071 2.73328 25.8271C2.42661 25.3737 2.54661 24.7471 2.99994 24.4404L9.57328 20.0271C11.0133 19.0671 12.9999 19.1737 14.3066 20.2804L14.7466 20.6671C15.4133 21.2404 16.5466 21.2404 17.1999 20.6671L22.7466 15.9071C24.1599 14.6937 26.3866 14.6937 27.8133 15.9071L29.9866 17.7737C30.3999 18.1337 30.4533 18.7604 30.0933 19.1871C29.7333 19.6004 29.0933 19.6537 28.6799 19.2937L26.5066 17.4271C25.8399 16.8537 24.7199 16.8537 24.0533 17.4271L18.5066 22.1871C17.0933 23.4004 14.8666 23.4004 13.4399 22.1871L12.9999 21.8004C12.3866 21.2804 11.3733 21.2271 10.6933 21.6937L4.13328 26.1071C3.94661 26.2137 3.74661 26.2671 3.55994 26.2671Z" fill="#818181"/>
</svg>
