<svg width="22" height="22" viewBox="0 0 22 22" fill="none" xmlns="http://www.w3.org/2000/svg">
<path d="M11.0001 14.9691C8.80922 14.9691 7.03088 13.1908 7.03088 10.9999C7.03088 8.80909 8.80922 7.03076 11.0001 7.03076C13.1909 7.03076 14.9692 8.80909 14.9692 10.9999C14.9692 13.1908 13.1909 14.9691 11.0001 14.9691ZM11.0001 8.40576C9.57005 8.40576 8.40588 9.56993 8.40588 10.9999C8.40588 12.4299 9.57005 13.5941 11.0001 13.5941C12.4301 13.5941 13.5942 12.4299 13.5942 10.9999C13.5942 9.56993 12.4301 8.40576 11.0001 8.40576Z" fill="#B6B6B6"/>
<path d="M11 19.2681C7.55332 19.2681 4.29916 17.2514 2.06249 13.7498C1.09082 12.2373 1.09082 9.77144 2.06249 8.24978C4.30832 4.74811 7.56249 2.73145 11 2.73145C14.4375 2.73145 17.6917 4.74811 19.9283 8.24978C20.9 9.76228 20.9 12.2281 19.9283 13.7498C17.6917 17.2514 14.4375 19.2681 11 19.2681ZM11 4.10645C8.03916 4.10645 5.20666 5.88478 3.22666 8.99228C2.53916 10.0648 2.53916 11.9348 3.22666 13.0073C5.20666 16.1148 8.03916 17.8931 11 17.8931C13.9608 17.8931 16.7933 16.1148 18.7733 13.0073C19.4608 11.9348 19.4608 10.0648 18.7733 8.99228C16.7933 5.88478 13.9608 4.10645 11 4.10645Z" fill="#B6B6B6"/>
</svg>
